<?xml version="1.0" encoding="UTF-8"?>
<svg version="1.1" xmlns="http://www.w3.org/2000/svg" width="465" height="430">
<path d="M0 0 C1.05985086 -0.00507454 2.11970172 -0.01014909 3.21166927 -0.0153774 C4.97208727 -0.01612404 4.97208727 -0.01612404 6.76806927 -0.01688576 C8.62744067 -0.02345914 8.62744067 -0.02345914 10.52437514 -0.03016531 C13.97629319 -0.04124798 17.42816581 -0.04778334 20.88009512 -0.05234647 C24.59867277 -0.05829578 28.31723364 -0.06990722 32.03579998 -0.08063698 C41.02134136 -0.1051752 50.00688831 -0.1197896 58.99245289 -0.13269705 C61.52921628 -0.13640774 64.06597912 -0.14038107 66.60274196 -0.14444971 C82.34696455 -0.16968342 98.09118798 -0.19174216 113.83542633 -0.20417786 C117.48335873 -0.20710768 121.13129111 -0.21006932 124.77922344 -0.21308327 C125.68592778 -0.21382932 126.59263211 -0.21457537 127.52681234 -0.21534403 C142.22178112 -0.22800334 156.91662905 -0.2612334 171.61154131 -0.3028851 C186.68938506 -0.34527284 201.76716688 -0.36886917 216.84507006 -0.37409842 C225.31449917 -0.37751599 233.78373938 -0.38931175 242.25310993 -0.42220116 C249.46457458 -0.45015941 256.67581163 -0.46121967 263.88732628 -0.4500057 C267.56805082 -0.44480822 271.24829843 -0.44777537 274.92895412 -0.47247124 C278.91661831 -0.4990042 282.90362731 -0.48694032 286.89136028 -0.47098732 C288.05828012 -0.48486941 289.22519995 -0.49875149 290.427481 -0.51305425 C298.26686418 -0.43542991 298.26686418 -0.43542991 302.19940853 2.55286789 C305.17963822 6.78256224 306.27654024 9.69508889 306.83879375 14.86748314 C307.03572575 16.62716675 307.03572575 16.62716675 307.23663616 18.42239952 C307.37274807 19.71009743 307.50885998 20.99779533 307.64909649 22.32451439 C307.80046045 23.70410746 307.95249177 25.08362744 308.10513592 26.46307945 C308.52002924 30.23102859 308.92518928 33.99996811 309.32847881 37.76917458 C309.75512749 41.7431727 310.1899798 45.71627389 310.62370586 49.68950462 C311.36820407 56.52152824 312.10644581 63.3542069 312.84099102 70.18730736 C313.75110714 78.65321177 314.66970973 87.11816802 315.59194756 95.58275986 C316.63796781 105.18489919 317.67787746 114.78769395 318.71612453 124.3906765 C319.01999685 127.19772797 319.32492682 130.00466288 319.63008404 132.81157494 C320.11217831 137.24879615 320.59037578 141.68642128 321.06564808 146.1243782 C321.24145871 147.76060231 321.41853318 149.39669119 321.59697056 151.03263092 C321.84179586 153.27938732 322.08195529 155.52659651 322.32097149 157.77397728 C322.52460308 159.6632872 322.52460308 159.6632872 322.73234844 161.590765 C323.01908818 165.12343685 323.07111922 168.59444527 323.02019024 172.13701439 C305.0178071 174.56342255 305.0178071 174.56342255 300.60222149 171.41045189 C299.1916126 169.04758321 298.12463787 166.65450531 297.02019024 164.13701439 C291.87171136 158.21626367 284.61566298 154.76370287 277.02019024 153.13701439 C275.5096847 153.04684568 273.99578213 153.00623937 272.48259163 153.00279331 C271.57224488 152.99833547 270.66189813 152.99387762 269.72396511 152.98928469 C268.72758229 152.98946906 267.73119946 152.98965342 266.70462322 152.98984337 C265.11242776 152.98432834 265.11242776 152.98432834 263.48806673 152.97870189 C259.91926125 152.96765924 256.35048487 152.96382019 252.78166485 152.96001244 C250.22752572 152.95374819 247.67338751 152.94710142 245.1192503 152.94009972 C237.44560482 152.92086867 229.77196445 152.91027049 222.09830102 152.90137193 C218.48203355 152.89698609 214.86576755 152.89162 211.24950123 152.88638306 C199.22336252 152.86937141 187.19722471 152.8548785 175.17107582 152.84763432 C172.05120054 152.84572451 168.93132526 152.84380416 165.81145 152.84184837 C165.03604697 152.84136463 164.26064394 152.84088089 163.46174384 152.84038249 C150.90815602 152.83208689 138.35466364 152.80675765 125.80111747 152.7742677 C112.90410428 152.74116179 100.00713953 152.72318232 87.11008364 152.71999007 C79.87236078 152.71782812 72.63477704 152.7091258 65.39709568 152.6835289 C58.58531642 152.65949354 51.7737909 152.65601837 44.96197796 152.66629028 C42.46551017 152.66678557 39.96903005 152.66046739 37.47259998 152.64673424 C34.05631618 152.62899655 30.64092789 152.63613174 27.22464275 152.6492672 C26.24387498 152.63829795 25.26310721 152.6273287 24.25261921 152.61602706 C14.7837421 152.7035258 6.34186477 155.4837643 -1.19855976 161.27373314 C-3.32568768 163.4988209 -4.34885241 165.83177964 -5.72980976 168.57451439 C-7.37434101 171.18779564 -7.37434101 171.18779564 -9.97980976 173.13701439 C-16.59041157 174.15853596 -23.40707733 173.05965223 -29.97980976 172.13701439 C-29.36185918 162.6871082 -28.533765 153.28658241 -27.52106953 143.87065697 C-27.37618927 142.50716769 -27.23151168 141.14365687 -27.08701801 139.78012657 C-26.69879889 136.12305667 -26.30749014 132.46632406 -25.91534257 128.80967355 C-25.58647121 125.74072837 -25.25904424 122.6716297 -24.93156761 119.60253543 C-24.15853078 112.35832808 -23.38284565 105.11440765 -22.60554218 97.87065697 C-21.80688914 90.42744579 -21.01306643 82.98373037 -20.22154671 75.53975755 C-19.53823625 69.11526209 -18.85175606 62.69111049 -18.16281074 56.26721686 C-17.75291407 52.44485796 -17.34421111 48.62238142 -16.93864346 44.79956055 C-16.55731607 41.20640822 -16.1720034 37.61370433 -15.7837534 34.02129364 C-15.57628493 32.09271849 -15.37278971 30.16371718 -15.16946125 28.23470116 C-12.82731839 6.69214758 -12.82731839 6.69214758 -6.97980976 1.13701439 C-4.48132069 -0.11223015 -2.7968606 0.00708523 0 0 Z M6.41325378 13.98978424 C3.48460268 18.50392716 2.72128273 23.27261383 2.05876446 28.53447533 C1.8987495 29.78307335 1.73873455 31.03167137 1.57387066 32.3181057 C1.40722717 33.66916175 1.24090423 35.02025738 1.07487774 36.37138939 C0.89873313 37.77379861 0.72222337 39.17616201 0.54536724 40.57848167 C0.17668919 43.51319977 -0.18755575 46.44842504 -0.54865742 49.3840847 C-1.00873068 53.12144496 -1.47977848 56.85732239 -1.95422268 60.59288216 C-2.32075816 63.48877133 -2.68134872 66.38537797 -3.04023075 69.28222466 C-3.21144742 70.65856752 -3.38445088 72.03468947 -3.5593729 73.41056633 C-6.15144171 86.54325718 -6.15144171 86.54325718 -3.10480976 98.69951439 C0.14152176 100.89556218 1.90762305 101.26293623 5.79697418 101.26844215 C6.8115409 101.2722833 7.82610761 101.27612444 8.87141877 101.28008199 C9.99444845 101.27921551 11.11747812 101.27834902 12.27453899 101.27745628 C13.46103375 101.28042741 14.64752851 101.28339853 15.86997765 101.28645968 C19.17367981 101.29365537 22.47732998 101.29632019 25.78103626 101.29705715 C29.34009981 101.29890478 32.89915202 101.30645065 36.45820904 101.31319237 C44.2453665 101.32678834 52.03251882 101.33280241 59.81968617 101.33720303 C64.67986393 101.33996338 69.54003969 101.34420036 74.4002161 101.3487072 C87.85029539 101.36090164 101.30037307 101.37120053 114.75045776 101.37458229 C116.042328 101.37491164 116.042328 101.37491164 117.36029662 101.37524764 C118.22363299 101.37546592 119.08696935 101.3756842 119.97646743 101.37590909 C121.72598636 101.37635256 123.47550529 101.37679912 125.22502422 101.37724876 C126.52676374 101.37758091 126.52676374 101.37758091 127.85480102 101.37791976 C141.91924828 101.38186845 155.98364375 101.39932382 170.048071 101.42260829 C184.4795489 101.44630803 198.9110008 101.45878352 213.34249848 101.45995021 C221.44857997 101.46086776 229.55459399 101.46664012 237.66065693 101.48476982 C244.56283576 101.50015227 251.46492628 101.5053023 258.36711899 101.49703172 C261.88975739 101.49311855 265.41221785 101.49408701 268.93483448 101.50808907 C272.75159719 101.52312179 276.56810795 101.51498114 280.38489056 101.50450706 C281.50122806 101.51256347 282.61756557 101.52061987 283.76773149 101.52892041 C290.9264415 101.59155499 290.9264415 101.59155499 297.02019024 98.13701439 C300.78810269 90.60118949 297.38322246 78.32680501 296.37565899 70.30888939 C296.2032018 68.90651927 296.03103227 67.50411374 295.85913372 66.10167503 C295.49969252 63.18317462 295.13508342 60.26537646 294.76701641 57.34795189 C294.29803116 53.62526029 293.8448409 49.90083411 293.39579582 46.1756916 C293.04534249 43.2870173 292.6851818 40.39961389 292.32227802 37.51247978 C292.15116843 36.13987988 291.98332632 34.76686822 291.81894779 33.39344597 C290.72795672 23.3742837 290.72795672 23.3742837 287.02019024 14.13701439 C283.82531978 12.00710075 283.03144505 11.88594927 279.36744308 11.87974548 C278.40600295 11.87329659 277.44456282 11.8668477 276.45398813 11.86020339 C275.39544436 11.86330059 274.33690058 11.86639779 273.24627972 11.86958885 C272.12356181 11.86505774 271.0008439 11.86052663 269.84410423 11.85585821 C266.06234494 11.8431449 262.28072837 11.84483904 258.49895 11.84648705 C255.79566685 11.84159542 253.09239387 11.83375878 250.38911724 11.82613182 C243.79679571 11.80950536 237.20450995 11.80402155 230.61216921 11.80290706 C225.25519453 11.80195745 219.89823167 11.7978515 214.54126072 11.79150581 C199.36142151 11.77388957 184.1816106 11.76466764 169.00176109 11.76616676 C168.18308441 11.76624667 167.36440773 11.76632659 166.52092266 11.76640892 C165.70124934 11.76649068 164.88157603 11.76657244 164.03706413 11.76665668 C150.74796331 11.76746988 137.45897575 11.74832471 124.1699077 11.72013219 C110.53279566 11.69142898 96.89573891 11.67759045 83.25859588 11.67931974 C75.59911311 11.67998449 67.93974909 11.67445505 60.28029346 11.65296364 C53.75979741 11.63478556 47.23947395 11.63037661 40.71896357 11.64398248 C37.39073777 11.65052929 34.06311482 11.64841101 30.73487568 11.63327599 C27.1299785 11.61794041 23.52596135 11.62705494 19.9210844 11.64253807 C18.86477135 11.63225094 17.80845829 11.62196382 16.72013575 11.61136496 C11.20551874 11.57747789 11.20551874 11.57747789 6.41325378 13.98978424 Z " fill="#434343" transform="translate(85.97980976104736,-0.13701438903808594)"/>
<path d="M0 0 C1.37597031 -0.00668677 1.37597031 -0.00668677 2.77973801 -0.01350862 C4.28598509 -0.01323207 4.28598509 -0.01323207 5.8226614 -0.01294994 C7.42710752 -0.01846498 7.42710752 -0.01846498 9.06396669 -0.02409142 C12.66041121 -0.03513451 16.25682685 -0.03897319 19.85328579 -0.04278088 C22.42712909 -0.04904509 25.00097149 -0.05569185 27.57481289 -0.0626936 C35.30778161 -0.08244353 43.04075161 -0.09252286 50.77373925 -0.10142139 C54.41790025 -0.10580715 58.06205981 -0.11117326 61.70621967 -0.11641026 C73.82500469 -0.13342193 85.9437888 -0.14791487 98.06258392 -0.155159 C101.20652232 -0.15706881 104.3504607 -0.15898915 107.49439907 -0.16094494 C108.66647547 -0.16167055 108.66647547 -0.16167055 109.86223017 -0.16241082 C122.51281553 -0.17070653 135.1633062 -0.19603592 147.81385023 -0.22852562 C160.8103045 -0.26163073 173.8067107 -0.27961092 186.80320734 -0.28280324 C194.09682109 -0.28496527 201.39029679 -0.29366862 208.68386936 -0.31926441 C215.54817771 -0.34329846 222.41223427 -0.34677543 229.27657604 -0.33650303 C231.79239445 -0.33600771 234.3082251 -0.34232675 236.82400608 -0.35605907 C240.26656204 -0.37379472 243.70822914 -0.36666254 247.1507864 -0.35352612 C248.6336109 -0.36997998 248.6336109 -0.36997998 250.14639145 -0.38676625 C260.57737508 -0.29109478 269.02096425 2.80948282 276.5522604 10.04437733 C283.91773082 18.23674048 283.87133054 26.58506022 283.43116665 37.13422108 C283.08065691 42.71041501 282.52894737 48.26588824 281.94190884 53.82147694 C281.68057192 56.32742394 281.44220892 58.83491059 281.20460415 61.34320545 C279.77966078 75.55707923 277.33519631 86.12569144 266.43116665 96.13422108 C257.82220325 103.15771273 249.18741289 105.59434043 238.19767666 105.52190113 C237.20544484 105.52728667 236.21321301 105.53267221 235.19091356 105.53822094 C231.88626665 105.55245896 228.58202266 105.54540693 225.27735806 105.53827381 C222.89981675 105.54397955 220.52227818 105.5509446 218.14474392 105.55907154 C212.36902344 105.57513634 206.59342799 105.57710801 200.81768991 105.57185864 C196.12023793 105.56780788 191.42281801 105.56927121 186.72536755 105.5746069 C186.05535013 105.57535532 185.38533271 105.57610374 184.69501173 105.57687484 C183.33361757 105.57840641 181.97222342 105.57994476 180.61082928 105.58148981 C167.859747 105.59520027 155.10872618 105.58978754 142.35764532 105.5783046 C130.70967363 105.568375 119.06186086 105.58131068 107.41391368 105.60523879 C95.43429767 105.62966153 83.45475557 105.6392298 71.47511518 105.63258606 C64.7572642 105.62910071 58.03955331 105.63161789 51.32171917 105.64883709 C45.00312835 105.66432643 38.68484043 105.66032815 32.36626148 105.64153194 C30.05201747 105.63785157 27.73775093 105.64093836 25.42352772 105.65141773 C22.2548801 105.66466677 19.08722952 105.65304473 15.91862392 105.63542652 C14.55764377 105.64983403 14.55764377 105.64983403 13.16916907 105.6645326 C1.180626 105.52816634 -7.841429 100.63637751 -16.31883335 92.44281483 C-23.2051721 85.02278483 -25.18940271 76.59483536 -26.19383335 66.75922108 C-26.31154087 65.71282459 -26.42924839 64.66642811 -26.5505228 63.58832264 C-26.78819661 61.45687299 -27.01945984 59.32469818 -27.24412632 57.19183826 C-27.54263736 54.3808967 -27.864923 51.57408578 -28.1977396 48.76703358 C-28.72763292 44.22820786 -29.17081817 39.6863107 -29.56883335 35.13422108 C-29.67840366 34.00629139 -29.78797398 32.8783617 -29.9008646 31.71625233 C-30.38363839 23.0375515 -27.58620203 15.79773997 -21.8930521 9.18890858 C-15.790589 3.60550556 -8.30374718 0.01876535 0 0 Z M-9.00633335 22.50922108 C-14.36411473 29.59727746 -15.72737584 36.38945327 -14.56883335 45.13422108 C-12.32638953 52.53636203 -8.28676802 57.36810618 -1.56883335 61.13422108 C4.71779799 64.15764245 12.08950778 64.26062847 18.8100729 62.51703358 C25.48860265 59.56331983 29.81114074 53.95620169 33.36866665 47.75922108 C35.34067974 41.03117641 35.27382477 34.49807981 32.47022915 28.01312733 C28.8707375 21.50427213 23.7353136 16.72977748 16.50929165 14.55609608 C6.64590414 12.55375425 -2.12379855 14.98091758 -9.00633335 22.50922108 Z M225.43116665 22.13422108 C221.14352645 28.72403172 218.79891269 34.16782116 219.43116665 42.13422108 C221.33339896 50.74567814 225.1032196 56.20361252 232.43116665 61.13422108 C238.87372112 64.32402003 246.51943667 64.36422524 253.3256979 62.22406483 C260.84954448 58.71594446 265.31743208 53.9185575 268.43116665 46.13422108 C270.00053389 38.77026711 269.28702686 32.63973482 265.74366665 25.94672108 C260.76078512 19.88645976 255.14970873 14.90493973 247.0835104 13.81781483 C238.88079669 13.42479454 231.21606158 16.18863463 225.43116665 22.13422108 Z M44.43116665 22.13422108 C43.37544343 25.30139075 43.29179151 27.5760411 43.27003384 30.90326405 C43.26042629 32.08814411 43.25081875 33.27302418 43.24092007 34.4938097 C43.23667019 35.77506733 43.23242031 37.05632496 43.22804165 38.37640858 C43.22234158 39.69206806 43.2166415 41.00772755 43.2107687 42.3632555 C43.20026946 45.14905654 43.19441973 47.93482882 43.19093227 50.72064686 C43.18544909 54.28390366 43.16142083 57.84677804 43.13296032 61.40991497 C43.10981622 64.81540549 43.10788328 68.22084348 43.10304165 71.62640858 C43.09069485 72.90361774 43.07834805 74.18082691 43.0656271 75.49673939 C43.0686282 76.68792377 43.0716293 77.87910816 43.07472134 79.10638905 C43.07107571 80.15213093 43.06743008 81.19787281 43.06367397 82.27530384 C43.52555512 85.86851822 44.85184247 88.5548969 47.43116665 91.13422108 C52.3601661 91.648128 52.3601661 91.648128 56.63027859 89.50055408 C58.94093313 86.46439752 58.93230189 84.75235399 58.93287563 80.96039295 C58.94694706 79.08825123 58.94694706 79.08825123 58.96130276 77.17828846 C58.95082439 75.81984235 58.93945536 74.46140286 58.9272604 73.10297108 C58.92741543 71.70579421 58.92890503 70.3086169 58.93167019 68.91144276 C58.93305347 65.98599662 58.92050904 63.06104119 58.89771938 60.13568592 C58.86933418 56.38955166 58.87207263 52.64423249 58.88480949 48.89803791 C58.89177116 46.01376883 58.88397198 43.1296875 58.87155247 40.24544239 C58.86704265 38.86437672 58.86669708 37.48329086 58.87061787 36.1022234 C58.87353449 34.17079816 58.85484714 32.23937691 58.83521938 30.3080492 C58.82711491 28.66068775 58.82711491 28.66068775 58.8188467 26.98004627 C58.38613251 23.80364106 57.64691686 22.41537284 55.43116665 20.13422108 C53.49060124 19.57983737 53.49060124 19.57983737 51.43116665 19.75922108 C50.75054165 19.7721117 50.06991665 19.78500233 49.36866665 19.79828358 C47.11176729 20.05508755 47.11176729 20.05508755 44.43116665 22.13422108 Z M69.43116665 23.13422108 C68.973877 26.04016137 68.973877 26.04016137 69.04298306 29.3939867 C69.03352657 30.68542591 69.02407009 31.97686512 69.01432705 33.30743885 C69.01969673 34.71845271 69.02584968 36.12946377 69.03272915 37.54047108 C69.0307083 38.98631404 69.02779677 40.43215602 69.02403164 41.87799549 C69.01960876 44.90767595 69.02603788 47.937091 69.04005337 50.96674061 C69.0571456 54.85084883 69.04730417 58.73433519 69.02933598 62.6184206 C69.01849695 65.60385292 69.02194494 68.58913772 69.02971935 71.57457447 C69.03172105 73.0067143 69.02926312 74.4388675 69.02228069 75.87099171 C69.01466521 77.8721437 69.02833003 79.87334262 69.04298306 81.87445545 C69.04536983 83.01346302 69.04775661 84.15247059 69.05021572 85.32599354 C69.19964214 88.14232274 69.19964214 88.14232274 70.83433437 90.00055408 C72.82491194 91.41375954 74.00491985 91.53679206 76.43116665 91.50922108 C77.11179165 91.51695545 77.79241665 91.52468983 78.49366665 91.53265858 C81.09365112 90.99798435 81.83521391 90.25697463 83.43116665 88.13422108 C83.8884563 85.22828078 83.8884563 85.22828078 83.81935024 81.87445545 C83.82880672 80.58301624 83.83826321 79.29157703 83.84800625 77.9610033 C83.84263656 76.54998945 83.83648362 75.13897838 83.82960415 73.72797108 C83.831625 72.28212811 83.83453653 70.83628614 83.83830166 69.39044666 C83.84272454 66.3607662 83.83629542 63.33135115 83.82227993 60.30170155 C83.8051877 56.41759332 83.81502912 52.53410696 83.83299732 48.65002155 C83.84383635 45.66458924 83.84038836 42.67930443 83.83261395 39.69386768 C83.83061225 38.26172786 83.83307018 36.82957465 83.8400526 35.39745045 C83.84766809 33.39629846 83.83400326 31.39509953 83.81935024 29.3939867 C83.81696346 28.25497913 83.81457668 27.11597157 83.81211758 25.94244862 C83.66269116 23.12611941 83.66269116 23.12611941 82.02799892 21.26788807 C80.03742136 19.85468262 78.85741345 19.73165009 76.43116665 19.75922108 C75.75054165 19.7514867 75.06991665 19.74375233 74.36866665 19.73578358 C71.76868218 20.2704578 71.02711938 21.01146753 69.43116665 23.13422108 Z M94.43116665 23.13422108 C93.96727417 25.99195286 93.96727417 25.99195286 94.02711391 29.28632069 C94.01442974 30.55451145 94.00174557 31.82270222 93.98867702 33.12932301 C93.99072854 34.51507193 93.99371663 35.90081975 93.9975729 37.28656483 C93.99301199 38.70759297 93.98770668 40.12861889 93.9816885 41.54964161 C93.97275247 44.52803984 93.97518559 47.50617001 93.98512173 50.48456287 C93.99660824 54.29920474 93.97640872 58.11292047 93.94720459 61.92744064 C93.92884642 64.86231319 93.92913424 67.79696368 93.93484211 70.73187923 C93.9349954 72.13808522 93.92894485 73.5443062 93.91655064 74.95045757 C93.90165403 76.917829 93.91494086 78.88535267 93.92945766 80.85272694 C93.92962383 81.971749 93.92979 83.09077106 93.9299612 84.24370289 C94.54788219 87.80733509 95.55903125 88.99155435 98.43116665 91.13422108 C103.01080911 91.74514714 103.01080911 91.74514714 107.12174892 89.99811268 C109.03011406 87.28164896 108.81243634 85.17387697 108.81935024 81.87445545 C108.82880672 80.58301624 108.83826321 79.29157703 108.84800625 77.9610033 C108.84263656 76.54998945 108.83648362 75.13897838 108.82960415 73.72797108 C108.831625 72.28212811 108.83453653 70.83628614 108.83830166 69.39044666 C108.84272454 66.3607662 108.83629542 63.33135115 108.82227993 60.30170155 C108.8051877 56.41759332 108.81502912 52.53410696 108.83299732 48.65002155 C108.84383635 45.66458924 108.84038836 42.67930443 108.83261395 39.69386768 C108.83061225 38.26172786 108.83307018 36.82957465 108.8400526 35.39745045 C108.84766809 33.39629846 108.83400326 31.39509953 108.81935024 29.3939867 C108.81696346 28.25497913 108.81457668 27.11597157 108.81211758 25.94244862 C108.66269116 23.12611941 108.66269116 23.12611941 107.02799892 21.26788807 C105.03742136 19.85468262 103.85741345 19.73165009 101.43116665 19.75922108 C100.75054165 19.7514867 100.06991665 19.74375233 99.36866665 19.73578358 C96.77261238 20.26964958 96.02842635 21.01888429 94.43116665 23.13422108 Z M120.81967068 22.29204273 C119.23072526 25.5445117 119.05671275 27.63331571 119.0588522 31.23798084 C119.05262341 32.44595829 119.04639462 33.65393574 119.03997707 34.89851856 C119.04918682 36.19446445 119.05839657 37.49041035 119.0678854 38.82562733 C119.06840449 40.17653369 119.0678849 41.52744082 119.06637478 42.87834644 C119.06646429 45.70358082 119.07685212 48.52852861 119.09498501 51.3537035 C119.11769347 54.97076404 119.11821019 58.58740703 119.11146736 62.20451927 C119.10812271 64.99181788 119.1147664 67.77902169 119.1245966 70.5663023 C119.13030336 72.54715028 119.12901447 74.52801441 119.12762356 76.50887012 C119.13715557 77.71369541 119.14668758 78.9185207 119.15650845 80.15985584 C119.16111584 81.21955082 119.16572323 82.2792458 119.17047024 83.37105274 C119.43358469 86.15985029 119.90349323 87.80499412 121.43116665 90.13422108 C124.52290416 91.68008983 127.02546217 91.42781629 130.43116665 91.13422108 C133.28295922 89.01192364 134.31022104 87.82094556 134.93237209 84.28839588 C134.93262135 82.64103443 134.93262135 82.64103443 134.93287563 80.96039295 C134.94694706 79.08825123 134.94694706 79.08825123 134.96130276 77.17828846 C134.95082439 75.81984235 134.93945536 74.46140286 134.9272604 73.10297108 C134.92741543 71.70579421 134.92890503 70.3086169 134.93167019 68.91144276 C134.93305347 65.98599662 134.92050904 63.06104119 134.89771938 60.13568592 C134.86933418 56.38955166 134.87207263 52.64423249 134.88480949 48.89803791 C134.89177116 46.01376883 134.88397198 43.1296875 134.87155247 40.24544239 C134.86704265 38.86437672 134.86669708 37.48329086 134.87061787 36.1022234 C134.87353449 34.17079816 134.85484714 32.23937691 134.83521938 30.3080492 C134.82711491 28.66068775 134.82711491 28.66068775 134.8188467 26.98004627 C134.38547845 23.79883984 133.65596917 22.41434785 131.43116665 20.13422108 C129.26867471 19.46795243 129.26867471 19.46795243 126.93116665 19.57172108 C126.15772915 19.54980701 125.38429165 19.52789295 124.58741665 19.50531483 C122.2242587 19.95996497 122.2242587 19.95996497 120.81967068 22.29204273 Z M145.43116665 23.13422108 C144.973877 26.04016137 144.973877 26.04016137 145.04298306 29.3939867 C145.03352657 30.68542591 145.02407009 31.97686512 145.01432705 33.30743885 C145.01969673 34.71845271 145.02584968 36.12946377 145.03272915 37.54047108 C145.0307083 38.98631404 145.02779677 40.43215602 145.02403164 41.87799549 C145.01960876 44.90767595 145.02603788 47.937091 145.04005337 50.96674061 C145.0571456 54.85084883 145.04730417 58.73433519 145.02933598 62.6184206 C145.01849695 65.60385292 145.02194494 68.58913772 145.02971935 71.57457447 C145.03172105 73.0067143 145.02926312 74.4388675 145.02228069 75.87099171 C145.01466521 77.8721437 145.02833003 79.87334262 145.04298306 81.87445545 C145.04536983 83.01346302 145.04775661 84.15247059 145.05021572 85.32599354 C145.19964214 88.14232274 145.19964214 88.14232274 146.83433437 90.00055408 C148.82491194 91.41375954 150.00491985 91.53679206 152.43116665 91.50922108 C153.11179165 91.51695545 153.79241665 91.52468983 154.49366665 91.53265858 C157.09365112 90.99798435 157.83521391 90.25697463 159.43116665 88.13422108 C159.8884563 85.22828078 159.8884563 85.22828078 159.81935024 81.87445545 C159.82880672 80.58301624 159.83826321 79.29157703 159.84800625 77.9610033 C159.84263656 76.54998945 159.83648362 75.13897838 159.82960415 73.72797108 C159.831625 72.28212811 159.83453653 70.83628614 159.83830166 69.39044666 C159.84272454 66.3607662 159.83629542 63.33135115 159.82227993 60.30170155 C159.8051877 56.41759332 159.81502912 52.53410696 159.83299732 48.65002155 C159.84383635 45.66458924 159.84038836 42.67930443 159.83261395 39.69386768 C159.83061225 38.26172786 159.83307018 36.82957465 159.8400526 35.39745045 C159.84766809 33.39629846 159.83400326 31.39509953 159.81935024 29.3939867 C159.81696346 28.25497913 159.81457668 27.11597157 159.81211758 25.94244862 C159.66269116 23.12611941 159.66269116 23.12611941 158.02799892 21.26788807 C156.03742136 19.85468262 154.85741345 19.73165009 152.43116665 19.75922108 C151.75054165 19.7514867 151.06991665 19.74375233 150.36866665 19.73578358 C147.76868218 20.2704578 147.02711938 21.01146753 145.43116665 23.13422108 Z M170.43116665 23.13422108 C169.96727417 25.99195286 169.96727417 25.99195286 170.02711391 29.28632069 C170.01442974 30.55451145 170.00174557 31.82270222 169.98867702 33.12932301 C169.99072854 34.51507193 169.99371663 35.90081975 169.9975729 37.28656483 C169.99301199 38.70759297 169.98770668 40.12861889 169.9816885 41.54964161 C169.97275247 44.52803984 169.97518559 47.50617001 169.98512173 50.48456287 C169.99660824 54.29920474 169.97640872 58.11292047 169.94720459 61.92744064 C169.92884642 64.86231319 169.92913424 67.79696368 169.93484211 70.73187923 C169.9349954 72.13808522 169.92894485 73.5443062 169.91655064 74.95045757 C169.90165403 76.917829 169.91494086 78.88535267 169.92945766 80.85272694 C169.92962383 81.971749 169.92979 83.09077106 169.9299612 84.24370289 C170.54788219 87.80733509 171.55903125 88.99155435 174.43116665 91.13422108 C179.01080911 91.74514714 179.01080911 91.74514714 183.12174892 89.99811268 C185.03011406 87.28164896 184.81243634 85.17387697 184.81935024 81.87445545 C184.82880672 80.58301624 184.83826321 79.29157703 184.84800625 77.9610033 C184.84263656 76.54998945 184.83648362 75.13897838 184.82960415 73.72797108 C184.831625 72.28212811 184.83453653 70.83628614 184.83830166 69.39044666 C184.84272454 66.3607662 184.83629542 63.33135115 184.82227993 60.30170155 C184.8051877 56.41759332 184.81502912 52.53410696 184.83299732 48.65002155 C184.84383635 45.66458924 184.84038836 42.67930443 184.83261395 39.69386768 C184.83061225 38.26172786 184.83307018 36.82957465 184.8400526 35.39745045 C184.84766809 33.39629846 184.83400326 31.39509953 184.81935024 29.3939867 C184.81696346 28.25497913 184.81457668 27.11597157 184.81211758 25.94244862 C184.66269116 23.12611941 184.66269116 23.12611941 183.02799892 21.26788807 C181.03742136 19.85468262 179.85741345 19.73165009 177.43116665 19.75922108 C176.75054165 19.7514867 176.06991665 19.74375233 175.36866665 19.73578358 C172.77261238 20.26964958 172.02842635 21.01888429 170.43116665 23.13422108 Z M196.81967068 22.29204273 C195.23072526 25.5445117 195.05671275 27.63331571 195.0588522 31.23798084 C195.05262341 32.44595829 195.04639462 33.65393574 195.03997707 34.89851856 C195.04918682 36.19446445 195.05839657 37.49041035 195.0678854 38.82562733 C195.06840449 40.17653369 195.0678849 41.52744082 195.06637478 42.87834644 C195.06646429 45.70358082 195.07685212 48.52852861 195.09498501 51.3537035 C195.11769347 54.97076404 195.11821019 58.58740703 195.11146736 62.20451927 C195.10812271 64.99181788 195.1147664 67.77902169 195.1245966 70.5663023 C195.13030336 72.54715028 195.12901447 74.52801441 195.12762356 76.50887012 C195.13715557 77.71369541 195.14668758 78.9185207 195.15650845 80.15985584 C195.16111584 81.21955082 195.16572323 82.2792458 195.17047024 83.37105274 C195.43358469 86.15985029 195.90349323 87.80499412 197.43116665 90.13422108 C200.44985099 91.64356325 203.10413893 91.3093278 206.43116665 91.13422108 C209.67966642 89.41195612 209.67966642 89.41195612 210.43116665 86.13422108 C210.53502499 84.14670596 210.57974839 82.15590248 210.59229946 80.16571522 C210.60190701 78.93756596 210.61151455 77.70941669 210.62141323 76.44405079 C210.62626066 75.10249486 210.63053962 73.76093677 210.63429165 72.41937733 C210.64004522 71.04319221 210.64580293 69.66700711 210.6515646 68.29082203 C210.66206356 65.40666805 210.66791374 62.52254186 210.67140102 59.63837147 C210.67688972 55.94498607 210.70092992 52.25196858 210.72937298 48.55869865 C210.74800549 45.71652117 210.75320522 42.87443231 210.7547369 40.03219891 C210.75776157 38.67064301 210.76578392 37.3090886 210.77892208 35.94759274 C210.79599661 34.04250996 210.79225547 32.1372751 210.78761196 30.23212147 C210.79125759 29.14862919 210.79490322 28.06513691 210.79865932 26.94881153 C210.38447927 23.77664701 209.64670601 22.40718466 207.43116665 20.13422108 C205.26867471 19.46795243 205.26867471 19.46795243 202.93116665 19.57172108 C202.15772915 19.54980701 201.38429165 19.52789295 200.58741665 19.50531483 C198.2242587 19.95996497 198.2242587 19.95996497 196.81967068 22.29204273 Z M-10.56883335 76.13422108 C-12.18313258 79.36281954 -12.16453992 82.64415761 -11.56883335 86.13422108 C-9.8328123 89.15930253 -7.73303198 91.55212176 -4.56883335 93.13422108 C0.77360098 93.48454464 4.07903203 93.59032798 8.43116665 90.13422108 C10.6478354 86.80921794 11.20254578 85.0969828 11.43116665 81.13422108 C10.30705357 77.64355415 9.16557538 75.00986226 6.80616665 72.19672108 C-0.21527923 69.05554792 -5.4874534 70.79877213 -10.56883335 76.13422108 Z M244.43116665 76.13422108 C242.81686742 79.36281954 242.83546008 82.64415761 243.43116665 86.13422108 C245.1671877 89.15930253 247.26696802 91.55212176 250.43116665 93.13422108 C255.55487063 93.74150953 255.55487063 93.74150953 260.2553854 92.08734608 C262.41945412 90.30578829 264.16921481 88.65812476 265.43116665 86.13422108 C265.77825141 80.84117853 265.94468559 77.40063694 262.43116665 73.13422108 C259.46027875 70.82353049 256.17955561 70.66334299 252.4663229 70.73968983 C248.81389068 71.44774291 246.99332857 73.5095674 244.43116665 76.13422108 Z " fill="#434343" transform="translate(105.56883335113525,153.86577892303467)"/>
<path d="M0 0 C0.71507656 -0.00581376 1.43015312 -0.01162753 2.16689867 -0.01761746 C4.56968348 -0.03224773 6.97145159 -0.0183189 9.37422943 -0.00457001 C11.11152752 -0.00917774 12.84882172 -0.0155298 14.58610773 -0.02347898 C19.36532621 -0.04021296 24.14422615 -0.03190749 28.92344594 -0.01953411 C34.07553494 -0.01050257 39.22756827 -0.02444392 44.3796463 -0.0354538 C54.47463322 -0.05326389 64.56950134 -0.04938794 74.66449296 -0.03780323 C82.86704954 -0.02877898 91.06957276 -0.02754054 99.27213287 -0.0318985 C100.43843889 -0.03251143 101.60474491 -0.03312436 102.80639353 -0.03375587 C105.17553422 -0.03503474 107.54467489 -0.03633159 109.91381556 -0.03764623 C132.14247454 -0.04905933 154.3710676 -0.03592688 176.59971577 -0.01444477 C195.68340016 0.00342686 214.76698723 0.00032296 233.85066986 -0.01811981 C255.99841271 -0.03951364 278.14609773 -0.04796062 300.29384947 -0.03567076 C302.65439827 -0.03439653 305.01494709 -0.03313904 307.37549591 -0.0318985 C308.53700783 -0.0312814 309.69851976 -0.03066429 310.89522901 -0.03002849 C319.09033573 -0.02657113 327.28540585 -0.03241226 335.4805069 -0.04181671 C345.4641699 -0.05302154 355.44770706 -0.05002858 365.4313556 -0.02869374 C370.52765082 -0.01816292 375.62373604 -0.01409606 380.72002983 -0.02729034 C385.3820715 -0.03917803 390.0437078 -0.03271176 394.7057125 -0.01138014 C396.39540794 -0.00689865 398.08513737 -0.00921484 399.77481109 -0.01888329 C402.06624183 -0.03099288 404.35627198 -0.01862934 406.64762878 0 C407.92191789 0.00064941 409.196207 0.00129882 410.50911093 0.00196791 C414.3996181 0.59046317 416.07512234 1.73784029 418.82381439 4.50336456 C420.43471613 11.96954394 416.01615234 22.6102692 414.12288666 29.93671417 C413.50906963 32.32459719 412.91700276 34.71722549 412.32576752 37.11078644 C411.93449665 38.64432369 411.54196271 40.17753936 411.14803314 41.71039581 C410.88841042 42.77300377 410.88841042 42.77300377 410.62354279 43.85707855 C409.46585157 48.23517283 408.08206635 51.32689123 404.82381439 54.50336456 C402.51912689 55.48236847 402.51912689 55.48236847 399.94881439 55.97992706 C398.97895599 56.1743338 398.0090976 56.36874054 397.00984955 56.56903839 C395.95845795 56.75361603 394.90706635 56.93819366 393.82381439 57.12836456 C392.71441498 57.33292267 391.60501556 57.53748077 390.46199799 57.74823761 C371.56634439 61.09668385 352.81013118 62.76922736 333.63631439 62.81586456 C332.56054138 62.82137833 332.56054138 62.82137833 331.46303558 62.82700348 C316.96940058 62.8659615 302.73220641 61.59256721 288.63631439 58.06586456 C287.32437103 57.75938995 287.32437103 57.75938995 285.98592377 57.44672394 C281.24659643 56.29507816 277.11179361 54.91052802 272.82381439 52.50336456 C272.08667709 53.15301682 271.34953979 53.80266907 270.590065 54.47200775 C265.71384872 57.68928413 260.20522112 57.05216813 254.56380463 57.00507355 C252.71648239 57.01317802 252.71648239 57.01317802 250.83184052 57.02144623 C247.46590672 57.03178969 244.10096053 57.02425663 240.73511386 57.00773501 C237.20739038 56.99384914 233.67969562 57.00034849 230.15195465 57.0038681 C224.22974664 57.00656709 218.30774167 56.9931204 212.38558197 56.9699173 C205.54401415 56.94329708 198.70278546 56.94156544 191.86118358 56.95330566 C185.27130648 56.96409303 178.68155174 56.95788969 172.09168434 56.94375038 C169.29074515 56.93800009 166.48989579 56.93806566 163.68895531 56.94281578 C159.77731668 56.94848388 155.86601603 56.9292471 151.95442963 56.9074173 C150.21421791 56.91416977 150.21421791 56.91416977 148.4388504 56.92105865 C147.37205048 56.91115402 146.30525055 56.90124939 145.20612335 56.89104462 C143.81991366 56.88739977 143.81991366 56.88739977 142.40569973 56.8836813 C139.31375946 56.42823248 137.44844556 55.15082429 134.82381439 53.50336456 C131.70161571 53.50336456 130.68701425 53.94945987 127.94881439 55.25336456 C122.5372215 57.49622239 117.05521523 58.60999986 111.32381439 59.69086456 C110.44612396 59.85747589 109.56843353 60.02408722 108.66414642 60.19574738 C97.44760254 62.23056089 86.3954619 62.74255477 75.01131439 62.75336456 C73.89990585 62.75487518 73.89990585 62.75487518 72.76604462 62.75641632 C53.24908853 62.73866295 34.07840142 60.68706057 14.82381439 57.50336456 C13.87997894 57.34964386 12.93614349 57.19592316 11.96370697 57.03754425 C3.20197641 55.47205239 3.20197641 55.47205239 -0.17618561 52.50336456 C-2.58659817 47.49739697 -4.11105074 42.50200602 -5.43790436 37.12055206 C-5.63342392 36.34325745 -5.82894348 35.56596283 -6.03038788 34.76511383 C-6.43905495 33.13382626 -6.84479279 31.5018023 -7.24771881 29.86908722 C-7.864171 27.37640184 -8.49317838 24.8871181 -9.12345123 22.39789581 C-9.52069053 20.80563605 -9.91720027 19.21319405 -10.31290436 17.62055206 C-10.59408363 16.51101669 -10.59408363 16.51101669 -10.8809433 15.37906647 C-12.77431929 7.63054501 -12.77431929 7.63054501 -12.17618561 4.50336456 C-8.25003927 0.51977236 -5.50338659 0.00280466 0 0 Z M142.82381439 13.50336456 C142.72375614 15.62516594 142.69300352 17.75029995 142.69100189 19.87445831 C142.68971283 21.17061066 142.68842377 22.466763 142.68709564 23.80219269 C142.68919037 24.48096466 142.6912851 25.15973663 142.6934433 25.85907745 C142.69878309 27.92873245 142.69350246 29.99816956 142.68709564 32.06781769 C142.6883847 33.36525909 142.68967377 34.6627005 142.69100189 35.99945831 C142.69212982 37.19756134 142.69325775 38.39566437 142.69441986 39.63007355 C142.6262009 42.44690619 142.6262009 42.44690619 143.82381439 44.50336456 C183.09381439 44.50336456 222.36381439 44.50336456 262.82381439 44.50336456 C264.25299182 41.6450097 263.95362248 39.19078737 263.95662689 35.99945831 C263.95791595 34.70201691 263.95920502 33.4045755 263.96053314 32.06781769 C263.95843842 31.39114044 263.95634369 30.7144632 263.95418549 30.01728058 C263.94882641 27.94551041 263.95413957 25.87395618 263.96053314 23.80219269 C263.95924408 22.50604034 263.95795502 21.209888 263.95662689 19.87445831 C263.954935 18.07899567 263.954935 18.07899567 263.95320892 16.24726105 C264.13644233 13.5916546 264.13644233 13.5916546 262.82381439 12.50336456 C261.28260599 12.40534803 259.73691071 12.3770461 258.19258881 12.37638092 C257.19137497 12.3735611 256.19016113 12.37074127 255.15860748 12.367836 C254.05103592 12.36986023 252.94346436 12.37188446 251.80233002 12.37397003 C250.06350807 12.37134155 250.06350807 12.37134155 248.28955841 12.36865997 C244.43637876 12.36423862 240.58324456 12.36718045 236.73006439 12.37055206 C234.06587923 12.36987911 231.40169549 12.36891086 228.73751068 12.36765289 C223.14534253 12.36583135 217.55318757 12.36823711 211.96102142 12.37299347 C205.48708937 12.37843606 199.01318881 12.3766734 192.53925753 12.37116706 C186.99022034 12.36663551 181.44119266 12.36598559 175.89215422 12.36860573 C172.57386131 12.37016827 169.25558653 12.36997282 165.93729401 12.36706924 C162.23994025 12.36454439 158.54264792 12.36838096 154.84529877 12.37397003 C153.7377272 12.3719458 152.63015564 12.36992157 151.4890213 12.367836 C149.98720055 12.37206573 149.98720055 12.37206573 148.45503998 12.37638092 C147.57971367 12.37675795 146.70438736 12.37713497 145.80253601 12.37752342 C143.82225304 12.28465865 143.82225304 12.28465865 142.82381439 13.50336456 Z M1.82381439 13.50336456 C3.11323774 20.59519295 4.45970633 27.31572071 6.44881439 34.19086456 C6.67826752 34.99975128 6.90772064 35.808638 7.14412689 36.64203644 C7.69941861 38.59712602 8.26092759 40.55044813 8.82381439 42.50336456 C16.90012013 44.68908262 24.97536038 46.04451916 33.26131439 47.12836456 C34.18887543 47.25122833 35.11643646 47.3740921 36.07210541 47.50067902 C65.08386678 51.15770845 94.54014659 51.28786029 122.82381439 43.50336456 C122.82381439 33.60336456 122.82381439 23.70336456 122.82381439 13.50336456 C82.89381439 13.50336456 42.96381439 13.50336456 1.82381439 13.50336456 Z M283.82381439 13.50336456 C283.82381439 23.40336456 283.82381439 33.30336456 283.82381439 43.50336456 C318.04630175 53.00961105 361.45267217 53.42872114 395.82381439 43.50336456 C398.89163168 41.15173421 399.53408266 38.75317241 400.42928314 35.06586456 C400.82083588 33.4764505 400.82083588 33.4764505 401.22029877 31.85492706 C401.6118515 30.19590363 401.6118515 30.19590363 402.01131439 28.50336456 C402.28395111 27.39734894 402.55658783 26.29133331 402.83748627 25.15180206 C404.30885692 19.39046015 404.30885692 19.39046015 404.82381439 13.50336456 C364.89381439 13.50336456 324.96381439 13.50336456 283.82381439 13.50336456 Z " fill="#434343" transform="translate(29.176185607910156,259.4966354370117)"/>
<path d="M0 0 C-0.02320312 0.64219482 -0.04640625 1.28438965 -0.0703125 1.94604492 C-0.26025481 11.83406823 0.88376786 21.50707491 2 31.3125 C2.2881235 33.87007948 2.5742649 36.42783363 2.85595703 38.98612976 C3.03005925 40.56486917 3.20787382 42.14320547 3.39013672 43.72102356 C3.88497641 48.17940347 4.08276632 52.51399153 4 57 C-3.48538793 57.02332902 -10.97077202 57.04101866 -18.4561882 57.05181217 C-21.93320769 57.05699653 -25.41020202 57.06401176 -28.88720703 57.07543945 C-32.89876526 57.0885392 -36.91029771 57.09326492 -40.921875 57.09765625 C-42.15049255 57.10281754 -43.37911011 57.10797882 -44.6449585 57.11329651 C-67.28352007 57.1147452 -67.28352007 57.1147452 -73 52 C-76.33122079 47.00316882 -75.32739635 41.24416378 -75.3125 35.375 C-75.32861328 34.12847656 -75.34472656 32.88195312 -75.36132812 31.59765625 C-75.365913 22.9139112 -74.60451378 16.05997736 -69.875 8.6875 C-62.44797541 1.74484658 -53.41415673 0.93101132 -43.625 0.4375 C-42.79516602 0.3950415 -41.96533203 0.35258301 -41.11035156 0.30883789 C-27.42155482 -0.29665623 -13.69842668 -0.08296662 0 0 Z " fill="#434343" transform="translate(75,174)"/>
<path d="M0 0 C60.01937908 -0.36351655 60.01937908 -0.36351655 70.37890625 8.79296875 C75.70031572 16.03777924 75.5291878 23.9277488 75.50097656 32.57348633 C75.49999689 34.69422275 75.54186312 36.81141811 75.5859375 38.93164062 C75.59114075 40.29165921 75.59383276 41.65169022 75.59375 43.01171875 C75.60083984 44.23334717 75.60792969 45.45497559 75.61523438 46.71362305 C74.82995778 50.90830888 73.28580299 52.3646383 70 55 C60.93531229 58.02156257 50.36670637 57.13733293 40.921875 57.09765625 C39.62928772 57.0962413 38.33670044 57.09482635 37.00494385 57.09336853 C33.6118975 57.08959801 30.21889574 57.07981625 26.8258667 57.06866455 C23.34615685 57.05833111 19.86643961 57.05384567 16.38671875 57.04882812 C9.59112781 57.03818754 2.79556606 57.02117911 -4 57 C-3.35907474 46.09662908 -2.32392524 35.29689098 -1.01757812 24.45117188 C-0.0868387 16.26708386 0.16176029 8.23414564 0 0 Z " fill="#434343" transform="translate(390,174)"/>
<path d="M0 0 C36.96 0 73.92 0 112 0 C112 7.26 112 14.52 112 22 C75.04 22 38.08 22 0 22 C0 14.74 0 7.48 0 0 Z " fill="#444444" transform="translate(176,277)"/>
<path d="M0 0 C36.63 0 73.26 0 111 0 C110.35701247 5.14390023 109.72385574 9.57829107 108.4375 14.5 C108.16808594 15.5415625 107.89867187 16.583125 107.62109375 17.65625 C107.41613281 18.4296875 107.21117187 19.203125 107 20 C73.18825853 25.9256802 34.56874466 31.41583389 1 21 C0.67 20.67 0.34 20.34 0 20 C0 13.4 0 6.8 0 0 Z M34 9 C33.16666667 12.5 33.16666667 12.5 34 16 C36.42853382 19.2856634 38.12274814 20.70758271 42 22 C45.64960575 22 47.17419927 21.27633948 50 19 C52.10101595 16.3259797 51.99846976 14.95715315 51.875 11.5 C50.898503 7.594012 50.38216497 6.16805447 47 4 C40.82500743 3.1178582 37.71777896 3.53951216 34 9 Z " fill="#434343" transform="translate(317,278)"/>
<path d="M0 0 C36.63 0 73.26 0 111 0 C111 6.93 111 13.86 111 21 C76.98669249 29.22299742 39.03570004 27.89314754 5 20 C2.53031919 13.3318618 1.2940907 7.11749886 0 0 Z M60 8 C58.66339855 11.35592863 58.66339855 11.35592863 59 15 C61.39277988 19.03781605 62.98750083 20.65022756 67.4375 22.1875 C71.13878239 22.257377 71.13878239 22.257377 74.4375 20.0625 C77.26664901 16.68132191 77.87181493 15.21177914 77.515625 10.9375 C76.58729794 7.44924075 74.92539902 5.99176104 72 4 C66.64318971 3.13908406 63.59644446 3.87466665 60 8 Z " fill="#434343" transform="translate(37,278)"/>
<path d="M0 0 C0.78769775 -0.00524185 1.57539551 -0.0104837 2.38696289 -0.0158844 C4.05125754 -0.02230376 5.71559757 -0.02096866 7.37988281 -0.01245117 C9.92855402 -0.00393614 12.47498754 -0.03270824 15.0234375 -0.06445312 C16.64062433 -0.06606511 18.25781513 -0.06548767 19.875 -0.0625 C20.63756104 -0.07373398 21.40012207 -0.08496796 22.18579102 -0.09654236 C25.33039245 -0.05504292 27.40518863 0.01332032 29.91870117 1.99780273 C31.30295273 5.30733491 31.34795088 8.37532449 31.30078125 11.90234375 C31.30152901 12.97832825 31.30152901 12.97832825 31.30229187 14.0760498 C31.29995685 15.58897682 31.29026201 17.10190813 31.27368164 18.61474609 C31.25007949 20.92581042 31.25312579 23.23572065 31.25976562 25.546875 C31.25418857 27.0195381 31.24707851 28.49219636 31.23828125 29.96484375 C31.23964836 30.99780579 31.23964836 30.99780579 31.24104309 32.05163574 C31.18771589 35.6739412 30.91121126 38.34951644 28.9375 41.43359375 C27.2875 41.43359375 25.6375 41.43359375 23.9375 41.43359375 C23.9375 45.06359375 23.9375 48.69359375 23.9375 52.43359375 C27.5675 52.43359375 31.1975 52.43359375 34.9375 52.43359375 C34.79629286 54.3714364 34.64937127 56.3088633 34.5 58.24609375 C34.41878906 59.32503906 34.33757813 60.40398437 34.25390625 61.515625 C33.9375 64.43359375 33.9375 64.43359375 32.9375 67.43359375 C15.50892857 66.00502232 15.50892857 66.00502232 11.9375 62.43359375 C11.44698051 55.4220505 12.21584271 48.40204971 12.9375 41.43359375 C11.95354248 41.4493042 11.95354248 41.4493042 10.94970703 41.46533203 C7.98734342 41.50681878 5.02504084 41.53289637 2.0625 41.55859375 C1.02996094 41.57535156 -0.00257812 41.59210938 -1.06640625 41.609375 C-2.54560547 41.61904297 -2.54560547 41.61904297 -4.0546875 41.62890625 C-5.42149658 41.6446167 -5.42149658 41.6446167 -6.81591797 41.66064453 C-9.0625 41.43359375 -9.0625 41.43359375 -11.0625 39.43359375 C-11.27452418 36.74399635 -11.36647614 34.15995652 -11.36328125 31.46875 C-11.36756638 30.6796373 -11.3718515 29.8905246 -11.37626648 29.07749939 C-11.38201363 27.40722616 -11.38250721 25.73692789 -11.37817383 24.06665039 C-11.37501655 21.50949403 -11.39845751 18.95349735 -11.42382812 16.39648438 C-11.42610134 14.77474105 -11.42680451 13.1529946 -11.42578125 11.53125 C-11.434991 10.76555191 -11.44420074 9.99985382 -11.45368958 9.21095276 C-11.42886781 6.36539917 -11.36111865 4.01365671 -10.04370117 1.45458984 C-6.83494299 -0.19901789 -3.52770155 -0.01358063 0 0 Z " fill="#434343" transform="translate(24.0625,77.56640625)"/>
<path d="M0 0 C0.79273315 0.00404846 1.58546631 0.00809692 2.40222168 0.01226807 C3.62274231 0.00939789 3.62274231 0.00939789 4.86791992 0.00646973 C6.58948068 0.0051078 8.31105171 0.00880479 10.03259277 0.01715088 C12.67296338 0.02785048 15.31265357 0.01725607 17.95300293 0.00445557 C19.62357735 0.00577716 21.29415135 0.00833955 22.96472168 0.01226807 C23.75745483 0.0082196 24.55018799 0.00417114 25.36694336 0 C30.95355141 0.04797279 30.95355141 0.04797279 33.18347168 2.27789307 C33.38329193 5.05124734 33.46326368 7.7225895 33.44909668 10.49664307 C33.45196686 11.7171637 33.45196686 11.7171637 33.45489502 12.96234131 C33.45625695 14.68390207 33.45255995 16.40547309 33.44421387 18.12701416 C33.43351426 20.76738476 33.44410868 23.40707496 33.45690918 26.04742432 C33.45558759 27.71799874 33.4530252 29.38857274 33.44909668 31.05914307 C33.45314514 31.85187622 33.4571936 32.64460938 33.46136475 33.46136475 C33.41339195 39.04797279 33.41339195 39.04797279 31.18347168 41.27789307 C28.93688965 41.50494385 28.93688965 41.50494385 26.17565918 41.47320557 C25.18952637 41.46676025 24.20339355 41.46031494 23.18737793 41.45367432 C22.15483887 41.4369165 21.1222998 41.42015869 20.05847168 41.40289307 C19.01819824 41.39386963 17.9779248 41.38484619 16.90612793 41.37554932 C14.33168076 41.35193053 11.75768956 41.31899456 9.18347168 41.27789307 C9.26025146 42.00991943 9.33703125 42.7419458 9.4161377 43.49615479 C10.09799604 50.11298286 10.29921012 56.62936271 10.18347168 63.27789307 C7.62271071 63.95193591 5.06020585 64.61730707 2.49597168 65.27789307 C1.41412598 65.56406494 1.41412598 65.56406494 0.3104248 65.85601807 C-0.39533691 66.03648682 -1.10109863 66.21695557 -1.82824707 66.40289307 C-2.47237549 66.57047119 -3.11650391 66.73804932 -3.78015137 66.91070557 C-5.81652832 67.27789307 -5.81652832 67.27789307 -10.81652832 67.27789307 C-11.47652832 62.32789307 -12.13652832 57.37789307 -12.81652832 52.27789307 C-9.18652832 52.27789307 -5.55652832 52.27789307 -1.81652832 52.27789307 C-1.81652832 48.64789307 -1.81652832 45.01789307 -1.81652832 41.27789307 C-3.46652832 41.27789307 -5.11652832 41.27789307 -6.81652832 41.27789307 C-8.88654152 39.20787987 -7.98062527 34.79023382 -7.98449707 31.93804932 C-7.98782547 31.1007579 -7.99115387 30.26346649 -7.99458313 29.40080261 C-7.99965589 27.62619579 -8.00199135 25.8515794 -8.00183105 24.07696533 C-8.00401629 21.35537051 -8.02216465 18.63418164 -8.0411377 15.91265869 C-8.04407174 14.19195696 -8.04605646 12.47125329 -8.04699707 10.75054932 C-8.05777534 9.52393333 -8.05777534 9.52393333 -8.06877136 8.27253723 C-8.04050272 1.31331603 -6.9946379 0.06006369 0 0 Z " fill="#434343" transform="translate(418.8165283203125,77.72210693359375)"/>
<path d="M0 0 C2.98704569 0.49784095 4.39324263 1.26216175 7 3 C9.42886499 3.30433916 9.42886499 3.30433916 12.18649292 3.26069641 C13.79735779 3.27132362 13.79735779 3.27132362 15.44076538 3.28216553 C17.2081456 3.2784494 17.2081456 3.2784494 19.01123047 3.2746582 C20.25209412 3.27976913 21.49295776 3.28488007 22.77142334 3.29014587 C26.17651167 3.30167786 29.58135686 3.30411318 32.98644781 3.30158257 C35.82935167 3.30051342 38.67223303 3.30539492 41.51513207 3.310188 C48.22315851 3.32128769 54.93112897 3.32171832 61.63916016 3.31567383 C68.55732811 3.30963575 75.47529259 3.32193965 82.39342582 3.3432439 C88.33408049 3.36086478 94.27467043 3.36686041 100.21535027 3.36360615 C103.76294555 3.36179356 107.31039577 3.36442676 110.85796738 3.37832069 C114.81538614 3.39323929 118.7725463 3.38392458 122.72998047 3.37231445 C123.90418549 3.37995819 125.0783905 3.38760193 126.28817749 3.39547729 C127.36772705 3.38846298 128.44727661 3.38144867 129.55953979 3.3742218 C130.49495039 3.37438954 131.43036098 3.37455729 132.39411736 3.37473011 C135.5011354 2.92793593 137.3794374 1.67609878 140 0 C142.02832031 0.22436523 142.02832031 0.22436523 144 1 C144.72541992 1.21922119 145.45083984 1.43844238 146.19824219 1.66430664 C147.36081543 2.0335022 147.36081543 2.0335022 148.546875 2.41015625 C149.39121094 2.67763672 150.23554688 2.94511719 151.10546875 3.22070312 C151.97816406 3.49849609 152.85085938 3.77628906 153.75 4.0625 C154.63816406 4.34416016 155.52632812 4.62582031 156.44140625 4.91601562 C158.62794971 5.60959662 160.81413179 6.30429441 163 7 C163 7.66 163 8.32 163 9 C159.32934932 11.31902141 156.18279295 11.25623107 151.90222168 11.26742554 C150.82939603 11.27422221 150.82939603 11.27422221 149.73489714 11.28115618 C147.33817305 11.29381726 144.9416757 11.29217875 142.54492188 11.29052734 C140.82670296 11.29651142 139.10848673 11.30331668 137.39027405 11.31088257 C132.72302145 11.32855925 128.05584217 11.33323857 123.38855934 11.33451414 C119.4942184 11.33641257 115.59989457 11.34376921 111.70556021 11.35085833 C102.52033211 11.36714521 93.33514322 11.3720269 84.14990234 11.37060547 C74.66812607 11.36940303 65.18657705 11.39052454 55.7048583 11.4220928 C47.56804121 11.44822006 39.43129853 11.4589743 31.29443979 11.45769465 C26.4328605 11.45718409 21.57148326 11.46291921 16.70994568 11.48405075 C12.13967294 11.50337417 7.56979629 11.50359827 2.99950981 11.48901749 C1.32089601 11.48692113 -0.35774221 11.49167928 -2.03631401 11.5037384 C-4.32541946 11.51912062 -6.61314701 11.50993114 -8.90222168 11.49447632 C-10.18384941 11.49556585 -11.46547714 11.49665539 -12.78594208 11.49777794 C-16.52224177 10.91911769 -17.69273252 9.91908374 -20 7 C-19.14450562 6.73521851 -19.14450562 6.73521851 -18.27172852 6.46508789 C-15.7009727 5.66744801 -13.13173007 4.86504006 -10.5625 4.0625 C-9.66466797 3.78470703 -8.76683594 3.50691406 -7.84179688 3.22070312 C-6.98779297 2.95322266 -6.13378906 2.68574219 -5.25390625 2.41015625 C-4.46314697 2.16402588 -3.6723877 1.91789551 -2.85766602 1.66430664 C-1.01056692 1.15313949 -1.01056692 1.15313949 0 0 Z " fill="#434343" transform="translate(161,313)"/>
<path d="M0 0 C-0.61374263 3.24200519 -1.76562351 5.27846541 -3.6875 7.9375 C-5.79544846 11.03870134 -5.79544846 11.03870134 -5.5 14.6875 C-5.005 15.450625 -4.51 16.21375 -4 17 C-1 21.84615385 -1 21.84615385 -1 25 C-12.73808293 26.30716559 -12.73808293 26.30716559 -18 25 C-21.71370145 21.93856339 -23.80883923 18.6701065 -25 14 C-24.2734375 11.4375 -24.2734375 11.4375 -23 9 C-22.69964844 8.18917969 -22.39929688 7.37835938 -22.08984375 6.54296875 C-17.51903248 -2.80007938 -9.02802406 -0.81433179 0 0 Z " fill="#434343" transform="translate(415,332)"/>
<path d="M0 0 C15.06121649 -1.52475758 15.06121649 -1.52475758 19.65234375 2.0859375 C21.45031126 4.67835577 22.82914074 7.07285185 24 10 C24.26554687 10.6496875 24.53109375 11.299375 24.8046875 11.96875 C25.20881342 16.17165952 22.92939973 19.27933677 20.72265625 22.69140625 C15.93348343 26.75224002 10.46243448 25.85324933 4.47265625 25.38671875 C2.75369141 25.19529297 2.75369141 25.19529297 1 25 C1.59623922 22.06368213 2.49758533 20.08200904 4.1875 17.625 C5.83031791 14.82324873 6.05008439 14.30676691 5.5 10.9375 C3.88716434 7.77903017 1.99622971 4.92780358 0 2 C0 1.34 0 0.68 0 0 Z " fill="#434343" transform="translate(50,332)"/>
<path d="M0 0 C15.93591906 -1.51770658 15.93591906 -1.51770658 20.7890625 2.05078125 C25.17234503 8.13867366 25.17234503 8.13867366 24.765625 12.53125 C23.29246887 17.28142692 22.14376903 20.96512691 18 24 C12.0972533 25.16618331 5.94886315 24.50509215 0 24 C0.62244599 22.72791378 1.24806767 21.45738118 1.875 20.1875 C2.22304688 19.47980469 2.57109375 18.77210938 2.9296875 18.04296875 C4 16 4 16 6 13 C5.6240992 9.69207298 4.07617396 7.10717511 2.4375 4.25 C1.98246094 3.45078125 1.52742188 2.6515625 1.05859375 1.828125 C0.70925781 1.22484375 0.35992187 0.6215625 0 0 Z " fill="#434343" transform="translate(419,371)"/>
<path d="M0 0 C15.93591906 -1.51770658 15.93591906 -1.51770658 20.7890625 2.05078125 C25.17234503 8.13867366 25.17234503 8.13867366 24.765625 12.53125 C23.29246887 17.28142692 22.14376903 20.96512691 18 24 C12.0972533 25.16618331 5.94886315 24.50509215 0 24 C1.15518303 20.91080013 2.24715398 18.65398443 4.1875 15.9375 C6.2348963 13.30164233 6.2348963 13.30164233 5.7734375 11.11328125 C4.87740698 8.66503625 3.73437124 6.5112114 2.4375 4.25 C1.98246094 3.45078125 1.52742188 2.6515625 1.05859375 1.828125 C0.70925781 1.22484375 0.35992187 0.6215625 0 0 Z " fill="#434343" transform="translate(419,346)"/>
<path d="M0 0 C15.89844094 -1.66555096 15.89844094 -1.66555096 20.82421875 2.23828125 C25.3649701 9.04480305 25.3649701 9.04480305 24.453125 13.9296875 C20.81575477 21.6150988 20.81575477 21.6150988 18 24 C14.84778532 24.83495068 11.919906 24.66966176 8.6875 24.4375 C7.85154297 24.40591797 7.01558594 24.37433594 6.15429688 24.34179688 C4.10134494 24.2596788 2.05021102 24.13412595 0 24 C0.34933594 23.39671875 0.69867188 22.7934375 1.05859375 22.171875 C1.51363281 21.37265625 1.96867187 20.5734375 2.4375 19.75 C2.88996094 18.96109375 3.34242188 18.1721875 3.80859375 17.359375 C5.38350219 14.31089339 5.38350219 14.31089339 6 11 C4.81422343 8.11948039 4.81422343 8.11948039 3.0625 5.25 C2.49660156 4.26515625 1.93070312 3.2803125 1.34765625 2.265625 C0.90292969 1.51796875 0.45820313 0.7703125 0 0 Z " fill="#434343" transform="translate(419,396)"/>
<path d="M0 0 C-1.16157301 3.12568736 -2.22137774 5.29517032 -4.25 8 C-6.3230705 10.78297201 -6.3230705 10.78297201 -5.5 13.375 C-5.005 14.24125 -4.51 15.1075 -4 16 C-3.29511669 17.38449595 -2.59764106 18.77277967 -1.90625 20.1640625 C-1.54853516 20.88287598 -1.19082031 21.60168945 -0.82226562 22.34228516 C-0.55091797 22.88933105 -0.27957031 23.43637695 0 24 C-15.92719691 25.66856349 -15.92719691 25.66856349 -20.82421875 21.7265625 C-22.77374739 18.77656582 -24.16419453 16.44073254 -25 13 C-24.234375 10.40625 -24.234375 10.40625 -23 8 C-22.7834375 7.26136719 -22.566875 6.52273438 -22.34375 5.76171875 C-18.66594055 -3.27956282 -8.11550002 -0.60676636 0 0 Z " fill="#434343" transform="translate(46,396)"/>
<path d="M0 0 C-1.15518303 3.08919987 -2.24715398 5.34601557 -4.1875 8.0625 C-6.2348963 10.69835767 -6.2348963 10.69835767 -5.7734375 12.88671875 C-4.87740698 15.33496375 -3.73437124 17.4887886 -2.4375 19.75 C-1.98246094 20.54921875 -1.52742188 21.3484375 -1.05859375 22.171875 C-0.70925781 22.77515625 -0.35992187 23.3784375 0 24 C-15.96677741 25.52064547 -15.96677741 25.52064547 -20.7890625 21.9140625 C-25.17521394 15.75901049 -25.17521394 15.75901049 -24.80078125 12 C-24.53652344 11.34 -24.27226562 10.68 -24 10 C-23.6596875 9.14921875 -23.319375 8.2984375 -22.96875 7.421875 C-17.54391279 -2.44671185 -10.02196489 -1.01459712 0 0 Z " fill="#434343" transform="translate(415,383)"/>
<path d="M0 0 C12.52138208 -1.31176384 12.52138208 -1.31176384 18 0 C21.72051567 3.0795865 23.67315982 6.36576796 25 11 C24.76953125 13.0625 24.76953125 13.0625 24 15 C23.731875 15.77859375 23.46375 16.5571875 23.1875 17.359375 C21.72106998 20.31153018 20.63897174 21.97622263 18 24 C12.43542521 25.16730554 6.6137752 24.50636502 1 24 C2.7890625 18.265625 2.7890625 18.265625 4.6875 15.875 C6.23180335 14.12153473 6.23180335 14.12153473 5.7421875 12.140625 C4.92134809 9.77315132 3.82677729 7.9569369 2.4375 5.875 C0 2.21529745 0 2.21529745 0 0 Z " fill="#434343" transform="translate(50,383)"/>
<path d="M0 0 C-0.45632812 0.73605469 -0.91265625 1.47210938 -1.3828125 2.23046875 C-1.95773438 3.20628906 -2.53265625 4.18210937 -3.125 5.1875 C-3.70507812 6.15042969 -4.28515625 7.11335938 -4.8828125 8.10546875 C-6.2943291 10.92709469 -6.2943291 10.92709469 -5.3125 13.6640625 C-4.25022857 15.55465273 -3.07791339 17.38312992 -1.875 19.1875 C0 22 0 22 0 24 C-15.92719691 25.66856349 -15.92719691 25.66856349 -20.82421875 21.7265625 C-22.77374739 18.77656582 -24.16419453 16.44073254 -25 13 C-24.234375 10.40625 -24.234375 10.40625 -23 8 C-22.7834375 7.26136719 -22.566875 6.52273438 -22.34375 5.76171875 C-18.66594055 -3.27956282 -8.11550002 -0.60676636 0 0 Z " fill="#434343" transform="translate(46,371)"/>
<path d="M0 0 C-1.16157301 3.12568736 -2.22137774 5.29517032 -4.25 8 C-6.3230705 10.78297201 -6.3230705 10.78297201 -5.5 13.375 C-5.005 14.24125 -4.51 15.1075 -4 16 C-3.29511669 17.38449595 -2.59764106 18.77277967 -1.90625 20.1640625 C-1.54853516 20.88287598 -1.19082031 21.60168945 -0.82226562 22.34228516 C-0.55091797 22.88933105 -0.27957031 23.43637695 0 24 C-15.92719691 25.66856349 -15.92719691 25.66856349 -20.82421875 21.7265625 C-22.77374739 18.77656582 -24.16419453 16.44073254 -25 13 C-24.234375 10.40625 -24.234375 10.40625 -23 8 C-22.7834375 7.26136719 -22.566875 6.52273438 -22.34375 5.76171875 C-18.66594055 -3.27956282 -8.11550002 -0.60676636 0 0 Z " fill="#434343" transform="translate(415,358)"/>
<path d="M0 0 C-0.45632812 0.73605469 -0.91265625 1.47210938 -1.3828125 2.23046875 C-1.95773438 3.20628906 -2.53265625 4.18210937 -3.125 5.1875 C-3.70507812 6.15042969 -4.28515625 7.11335938 -4.8828125 8.10546875 C-6.2943291 10.92709469 -6.2943291 10.92709469 -5.3125 13.6640625 C-4.25022857 15.55465273 -3.07791339 17.38312992 -1.875 19.1875 C0 22 0 22 0 24 C-15.92719691 25.66856349 -15.92719691 25.66856349 -20.82421875 21.7265625 C-22.77374739 18.77656582 -24.16419453 16.44073254 -25 13 C-24.234375 10.40625 -24.234375 10.40625 -23 8 C-22.7834375 7.26136719 -22.566875 6.52273438 -22.34375 5.76171875 C-18.66594055 -3.27956282 -8.11550002 -0.60676636 0 0 Z " fill="#434343" transform="translate(46,346)"/>
<path d="M0 0 C15.96677741 -1.52064547 15.96677741 -1.52064547 20.7890625 2.0859375 C25.20176737 8.27825175 25.20176737 8.27825175 24.765625 12 C24.51296875 12.66 24.2603125 13.32 24 14 C23.74347656 14.85078125 23.48695313 15.7015625 23.22265625 16.578125 C21.8053053 19.84232719 20.75401209 21.6985251 18 24 C12.12565084 25.30914868 5.93352935 24.55976692 0 24 C1.15190859 20.9143444 2.22292492 18.69427439 4.1875 16 C6.1893949 13.24505042 6.1893949 13.24505042 6.0625 10.625 C4.50828043 6.7851634 2.30612543 3.42940424 0 0 Z " fill="#434343" transform="translate(419,321)"/>
<path d="M0 0 C-0.34933594 0.60328125 -0.69867188 1.2065625 -1.05859375 1.828125 C-1.51363281 2.62734375 -1.96867187 3.4265625 -2.4375 4.25 C-2.88996094 5.03890625 -3.34242187 5.8278125 -3.80859375 6.640625 C-5.37405894 9.69005962 -5.37405894 9.69005962 -6 13 C-4.81473209 15.36874599 -4.81473209 15.36874599 -3.0625 17.625 C0 21.82460137 0 21.82460137 0 24 C-14.86627455 25.67245589 -14.86627455 25.67245589 -19.9453125 21.69140625 C-25.1598215 14.6546226 -25.1598215 14.6546226 -24.80078125 10.9375 C-24.53652344 10.298125 -24.27226562 9.65875 -24 9 C-23.74347656 8.22140625 -23.48695312 7.4428125 -23.22265625 6.640625 C-18.534402 -3.02002012 -9.27223289 -0.78726506 0 0 Z " fill="#434343" transform="translate(46,321)"/>
<path d="M0 0 C12.52138208 -1.31176384 12.52138208 -1.31176384 18 0 C21.72051567 3.0795865 23.67315982 6.36576796 25 11 C24.76953125 13.0625 24.76953125 13.0625 24 15 C23.731875 15.77859375 23.46375 16.5571875 23.1875 17.359375 C21.72106998 20.31153018 20.63897174 21.97622263 18 24 C12.43542521 25.16730554 6.6137752 24.50636502 1 24 C2.7890625 18.2578125 2.7890625 18.2578125 4.6875 15.9375 C6.21031805 14.07956477 6.21031805 14.07956477 6 11.75 C4.77955133 8.39376616 3.02762944 5.63937355 1.05859375 2.671875 C0 1 0 1 0 0 Z " fill="#434343" transform="translate(50,358)"/>
<path d="M0 0 C12.48791021 -1.30825726 12.48791021 -1.30825726 18 0 C21.76028731 3.06510814 23.70925661 6.33443486 25 11 C24.61382146 15.43461692 22.99370549 17.73413947 20 21 C16.81175432 22.59412284 13.37103338 22.10174735 9.875 22.0625 C9.12089844 22.05798828 8.36679687 22.05347656 7.58984375 22.04882812 C5.72652873 22.03703499 3.86325445 22.01909942 2 22 C3.12451727 19.0280615 4.22293791 16.66559313 6 14 C5.64105828 10.7760507 4.21500112 8.53871962 2.4375 5.875 C0 2.21529745 0 2.21529745 0 0 Z " fill="#434343" transform="translate(50,408)"/>
<path d="M0 0 C-1.16237756 3.08558408 -2.41805292 5.76498042 -4.25 8.5 C-6.35218509 11.76779954 -6.35218509 11.76779954 -5.375 14.625 C-4.694375 15.800625 -4.694375 15.800625 -4 17 C-3.31899808 18.6608608 -2.6503427 20.32689612 -2 22 C-4.41696872 22.05411124 -6.83271787 22.09372278 -9.25 22.125 C-9.93191406 22.14175781 -10.61382812 22.15851563 -11.31640625 22.17578125 C-15.05300326 22.21205889 -17.88951473 22.17587937 -21 20 C-23.375 17.25 -23.375 17.25 -25 14 C-24.625 11.125 -24.625 11.125 -23 8 C-22.70738281 7.2884375 -22.41476562 6.576875 -22.11328125 5.84375 C-17.53504772 -2.79557441 -8.46229253 -0.67849116 0 0 Z " fill="#434343" transform="translate(415,408)"/>
<path d="M0 0 C6.32650719 -0.23335477 12.05210538 -0.31867078 18 2 C20.19508148 4.07487464 21.90748798 6.17021476 23 9 C22.7421875 10.9296875 22.7421875 10.9296875 22 13 C21.74347656 13.77859375 21.48695312 14.5571875 21.22265625 15.359375 C19.76091284 18.37145233 18.70998442 19.97705388 16 22 C10.10256011 23.17779938 3.94513514 22.50477562 -2 22 C-1.65066406 21.39671875 -1.30132812 20.7934375 -0.94140625 20.171875 C-0.48636719 19.37265625 -0.03132813 18.5734375 0.4375 17.75 C0.88996094 16.96109375 1.34242187 16.1721875 1.80859375 15.359375 C2.91936877 13.15967628 3.71773498 11.44461667 4 9 C2.71488126 6.96868328 1.38123963 4.96722008 0 3 C0 2.01 0 1.02 0 0 Z " fill="#434343" transform="translate(52,234)"/>
<path d="M0 0 C-0.57294859 2.68321467 -1.08760069 4.12653433 -2.6875 6.4375 C-4.29423762 8.88678966 -4.29423762 8.88678966 -3.4375 11.3125 C-2.963125 12.199375 -2.48875 13.08625 -2 14 C-1.29990207 15.38757087 -0.60350678 16.77701401 0.08984375 18.16796875 C0.44812256 18.88621826 0.80640137 19.60446777 1.17553711 20.34448242 C1.44760986 20.89080322 1.71968262 21.43712402 2 22 C-13.92719691 23.66856349 -13.92719691 23.66856349 -18.82421875 19.7265625 C-20.77374739 16.77656582 -22.16419453 14.44073254 -23 11 C-21.79388371 6.50803176 -19.62654958 3.90123966 -16 1 C-10.75016629 -0.31245843 -5.38512921 -0.1099006 0 0 Z " fill="#434343" transform="translate(413,234)"/>
<path d="M0 0 C3.60433477 0.00578545 4.68417343 0.51063308 7.34765625 3.02734375 C13.02325109 10.484695 13.02325109 10.484695 12.76171875 14.34375 C10.13506507 22.01208491 10.13506507 22.01208491 6.9375 24.75 C2.83788882 25.44928264 -0.9460351 25.13915839 -5.0625 24.75 C-5.09137236 20.93751574 -5.10925492 17.1250593 -5.125 13.3125 C-5.13337891 12.22388672 -5.14175781 11.13527344 -5.15039062 10.01367188 C-5.15361328 8.97919922 -5.15683594 7.94472656 -5.16015625 6.87890625 C-5.16539307 5.92056885 -5.17062988 4.96223145 -5.17602539 3.97485352 C-4.98870149 0.30370796 -3.36203229 0.39214099 0 0 Z " fill="#434343" transform="translate(5.0625,306.25)"/>
<path d="M0 0 C0 7.92 0 15.84 0 24 C-11 24 -11 24 -13.67578125 21.98828125 C-14.48595703 20.66376953 -14.48595703 20.66376953 -15.3125 19.3125 C-15.88613281 18.44238281 -16.45976562 17.57226562 -17.05078125 16.67578125 C-18 14 -18 14 -17.32421875 11.46875 C-16.88722656 10.6540625 -16.45023437 9.839375 -16 9 C-15.6184375 8.18917969 -15.236875 7.37835938 -14.84375 6.54296875 C-14.4003125 5.76566406 -13.956875 4.98835938 -13.5 4.1875 C-12.86578125 3.00220703 -12.86578125 3.00220703 -12.21875 1.79296875 C-10 0 -10 0 0 0 Z " fill="#434343" transform="translate(465,307)"/>
<path d="M0 0 C1.54636538 0.14368882 3.09149711 0.31701831 4.625 0.5625 C4.73539334 8.96465965 4.57958649 17.20986824 3.625 25.5625 C0.08451004 26.2677485 -2.8622911 26.48769974 -6.375 25.5625 C-9.61739501 22.34772334 -11.90299484 18.89089614 -13.375 14.5625 C-12.703125 12 -12.703125 12 -11.375 9.5625 C-10.9934375 8.75167969 -10.611875 7.94085938 -10.21875 7.10546875 C-7.43930093 2.23335308 -5.85874458 -0.03319402 0 0 Z " fill="#434343" transform="translate(460.375,331.4375)"/>
<path d="M0 0 C3.4278271 0.00547576 4.51666576 0.33379369 6.9921875 2.77734375 C12.60733615 10.71077991 12.60733615 10.71077991 12.875 14.6875 C11.79296875 17.484375 11.79296875 17.484375 10.0625 20.4375 C9.51980469 21.42234375 8.97710937 22.4071875 8.41796875 23.421875 C4.93979934 26.52070489 2.42394341 26.11196645 -2.0847168 25.87207031 C-2.75801025 25.81116211 -3.43130371 25.75025391 -4.125 25.6875 C-4.32085353 21.70869772 -4.5052867 17.72944844 -4.6875 13.75 C-4.74357422 12.61369141 -4.79964844 11.47738281 -4.85742188 10.30664062 C-4.90576172 9.22705078 -4.95410156 8.14746094 -5.00390625 7.03515625 C-5.0510376 6.03492432 -5.09816895 5.03469238 -5.14672852 4.00415039 C-5.11102952 0.1979954 -3.45362148 0.35706934 0 0 Z " fill="#434343" transform="translate(5.125,331.3125)"/>
<path d="M0 0 C1.4513613 -0.0574462 2.90337339 -0.09862527 4.35546875 -0.1328125 C5.56819458 -0.16979248 5.56819458 -0.16979248 6.80541992 -0.20751953 C9 0 9 0 11.3125 2.125 C11.869375 3.07375 12.42625 4.0225 13 5 C13.763125 5.99 14.52625 6.98 15.3125 8 C17 11 17 11 16.76171875 13.38671875 C15.44485819 17.90456343 13.4073692 21.71882965 10 25 C6.86369004 25.75598351 4.15770058 25.5683861 1 25 C0.10250178 21.9317362 -0.11711768 19.20730024 -0.09765625 16.015625 C-0.09443359 15.08105469 -0.09121094 14.14648438 -0.08789062 13.18359375 C-0.07951172 12.21550781 -0.07113281 11.24742187 -0.0625 10.25 C-0.05798828 9.26644531 -0.05347656 8.28289062 -0.04882812 7.26953125 C-0.03706483 4.84629209 -0.02062684 2.42317727 0 0 Z " fill="#434343" transform="translate(370,345)"/>
<path d="M0 0 C1.37918793 0.12744971 2.75733135 0.28117302 4.125 0.5 C5.39260846 3.03521691 5.16647569 4.64463739 5.0390625 7.47265625 C4.99523437 8.45427734 4.95140625 9.43589844 4.90625 10.44726562 C4.8546875 11.47529297 4.803125 12.50332031 4.75 13.5625 C4.70617187 14.59439453 4.66234375 15.62628906 4.6171875 16.68945312 C4.25354231 24.37145769 4.25354231 24.37145769 3.125 25.5 C-0.08701918 26.35470038 -2.68348268 26.47022127 -5.875 25.5 C-9.08571886 22.26106744 -11.4021952 18.82248459 -12.875 14.5 C-11.3824 7.54624002 -7.85749946 -0.02474803 0 0 Z " fill="#434343" transform="translate(90.875,344.5)"/>
<path d="M0 0 C0.66 7.92 1.32 15.84 2 24 C-9 24 -9 24 -11.67578125 22.0234375 C-16.056126 14.93543334 -16.056126 14.93543334 -15.8125 10.875 C-15.214375 9.92625 -14.61625 8.9775 -14 8 C-13.59910156 7.29359375 -13.19820313 6.5871875 -12.78515625 5.859375 C-8.79973162 -0.45548064 -8.70650343 0 0 0 Z " fill="#434343" transform="translate(463,282)"/>
<path d="M0 0 C3.22081348 -0.72303976 5.80586862 -0.91837585 9 0 C12.14016651 3.25771285 14.37116512 6.7798369 16 11 C15.7020258 15.60127604 13.72147398 18.80215005 10.96484375 22.39453125 C7.80995919 24.97237927 4.8940141 24.60481532 0.9765625 24.28125 C-0.00183594 24.14203125 -0.00183594 24.14203125 -1 24 C-1.11547323 15.92970447 -0.90041311 8.02332397 0 0 Z " fill="#434343" transform="translate(2,282)"/>
<path d="M0 0 C2.51194531 2.2939891 4.01972109 4.74428579 5 8 C4.40992501 12.95662989 1.57234467 17.61230933 -2 21 C-5.45633338 21.76750175 -8.52126693 21.55687229 -12 21 C-12.90238747 18.29283758 -13.11851302 16.76223232 -13.09765625 13.98828125 C-13.09443359 13.23095703 -13.09121094 12.47363281 -13.08789062 11.69335938 C-13.07951172 10.90767578 -13.07113281 10.12199219 -13.0625 9.3125 C-13.05798828 8.51521484 -13.05347656 7.71792969 -13.04882812 6.89648438 C-13.0370585 4.93095743 -13.01912348 2.96546915 -13 1 C-8.6247846 -0.45840513 -4.54263239 -1.01830074 0 0 Z " fill="#434343" transform="translate(382,323)"/>
<path d="M0 0 C1.41655793 -0.0272415 2.83327045 -0.04650467 4.25 -0.0625 C5.43335937 -0.07990234 5.43335937 -0.07990234 6.640625 -0.09765625 C9 0 9 0 13 1 C13 7.6 13 14.2 13 21 C5.92857143 21.87301587 5.92857143 21.87301587 2 21 C-1.19669705 18.13103155 -3.38372484 14.98037911 -5 11 C-4.60525614 6.85131942 -2.09387924 3.51231356 0 0 Z " fill="#434343" transform="translate(83,323)"/>
<path d="M0 0 C1.33998047 0.06417114 1.33998047 0.06417114 2.70703125 0.12963867 C3.60808594 0.1629126 4.50914062 0.19618652 5.4375 0.23046875 C6.12457031 0.27324951 6.81164062 0.31603027 7.51953125 0.36010742 C7.38105487 3.98542808 7.23250482 7.61026646 7.08203125 11.23510742 C7.04271484 12.26764648 7.00339844 13.30018555 6.96289062 14.36401367 C6.92099609 15.35014648 6.87910156 16.3362793 6.8359375 17.35229492 C6.79927979 18.26350098 6.76262207 19.17470703 6.72485352 20.11352539 C6.51953125 22.36010742 6.51953125 22.36010742 5.51953125 24.36010742 C0.55619174 25.31794487 0.55619174 25.31794487 -2.48046875 24.36010742 C-5.58743776 21.09020514 -7.9341117 17.60399845 -9.48046875 13.36010742 C-8.78515625 10.76635742 -8.78515625 10.76635742 -7.48046875 8.36010742 C-7.01640625 7.2521582 -7.01640625 7.2521582 -6.54296875 6.12182617 C-3.68084682 0.53437491 -3.68084682 0.53437491 0 0 Z " fill="#434343" transform="translate(456.48046875,357.639892578125)"/>
<path d="M0 0 C3.54022238 -0.7051952 6.48869544 -0.93125904 10 0 C13.17181739 3.24315585 15.36397507 6.77114133 17 11 C16.61236028 15.87318503 13.35144354 20.59138898 10 24 C6.98466967 24.8066144 5.15328893 24.48930345 2 24 C0.79483714 19.10845663 0.66538566 14.19724878 0.4375 9.1875 C0.39431641 8.30384766 0.35113281 7.42019531 0.30664062 6.50976562 C0.20108464 4.34000377 0.10008929 2.1700209 0 0 Z " fill="#434343" transform="translate(1,358)"/>
<path d="M0 0 C3.19182394 -0.65139264 5.82940096 -0.82645946 9 0 C12.10665644 2.9072988 14.36000519 6.07204041 16 10 C15.65680058 15.42422502 12.8009983 20.20710617 9 24 C5.98436763 24.80128113 4.15247431 24.48917705 1 24 C-0.12513633 15.98340366 -0.09579384 8.07861415 0 0 Z " fill="#434343" transform="translate(371,371)"/>
<path d="M0 0 C0.0270491 3.06255961 0.04686298 6.1248786 0.0625 9.1875 C0.07087891 10.05181641 0.07925781 10.91613281 0.08789062 11.80664062 C0.10396812 16.00286769 0.07559038 19.90936886 -1 24 C-5.96333951 24.95783745 -5.96333951 24.95783745 -9 24 C-12.10696901 20.73009772 -14.45364295 17.24389102 -16 13 C-15.30859375 10.40625 -15.30859375 10.40625 -14 8 C-13.67902344 7.26136719 -13.35804687 6.52273438 -13.02734375 5.76171875 C-12.48787109 4.73498047 -12.48787109 4.73498047 -11.9375 3.6875 C-11.59589844 2.99011719 -11.25429687 2.29273438 -10.90234375 1.57421875 C-7.73264408 -1.04875654 -3.95102448 -0.27457061 0 0 Z " fill="#434343" transform="translate(94,371)"/>
<path d="M0 0 C4.97691895 -0.96045804 4.97691895 -0.96045804 8 0 C11.03489919 3.29710555 13.29294316 6.85677051 15 11 C14.76333944 14.37721021 13.04106663 16.92491552 11.25 19.75 C10.76015625 20.54921875 10.2703125 21.3484375 9.765625 22.171875 C8 24 8 24 5.359375 24.328125 C3 24 3 24 2 23 C1.59467001 20.26920014 1.24520752 17.55451593 0.9375 14.8125 C0.84662109 14.05646484 0.75574219 13.30042969 0.66210938 12.52148438 C0.17778764 8.32281554 -0.1013102 4.23476656 0 0 Z " fill="#434343" transform="translate(3,383)"/>
<path d="M0 0 C1.24910156 0.09796875 2.49820312 0.1959375 3.78515625 0.296875 C3.64350295 3.17213569 3.49697093 6.04701036 3.34765625 8.921875 C3.28868164 10.13423828 3.28868164 10.13423828 3.22851562 11.37109375 C2.99719543 15.74838365 2.61594708 19.98234781 1.78515625 24.296875 C-0.96875 24.59375 -0.96875 24.59375 -4.21484375 24.296875 C-6.3671875 22.25 -6.3671875 22.25 -8.15234375 19.546875 C-8.75949219 18.66515625 -9.36664063 17.7834375 -9.9921875 16.875 C-11.21484375 14.296875 -11.21484375 14.296875 -11.06640625 12.296875 C-10.00993657 9.81562512 -8.92870615 7.42570847 -7.65234375 5.046875 C-6.96978516 3.70882813 -6.96978516 3.70882813 -6.2734375 2.34375 C-3.86156676 -0.05439093 -3.26780932 0.00288103 0 0 Z " fill="#434343" transform="translate(458.21484375,382.703125)"/>
<path d="M0 0 C2.1875 -0.5 2.1875 -0.5 5 0 C8.49234416 3.539538 10.32734145 7.6128635 10.625 12.5625 C10.35750844 16.61710896 9.07433705 19.41742139 6.875 22.78515625 C3.76023351 24.80326537 0.64415705 24.17548707 -3 24 C-2.22095672 7.1070615 -2.22095672 7.1070615 0 0 Z " fill="#434343" transform="translate(6,257)"/>
<path d="M0 0 C1.65 0 3.3 0 5 0 C6.67753327 5.30748972 7.54705027 10.40907924 8.125 15.9375 C8.21136719 16.71673828 8.29773438 17.49597656 8.38671875 18.29882812 C8.59651323 20.1986337 8.79901994 22.09924174 9 24 C1.49094663 25.03065438 1.49094663 25.03065438 -1.74609375 22.79296875 C-4.60430101 19.33559057 -5.32815726 16.45486787 -5.0625 12 C-4.32439813 7.2674645 -2.66083321 3.94833314 0 0 Z " fill="#434343" transform="translate(454,257)"/>
<path d="M0 0 C15.96677741 -1.52064547 15.96677741 -1.52064547 20.7890625 2.0859375 C25.25210005 8.3488832 25.25210005 8.3488832 24.64453125 12.328125 C24.32548828 13.15570313 24.32548828 13.15570313 24 14 C8.60315873 14.42438923 8.60315873 14.42438923 4.828125 11.0703125 C3.58545083 8.73070989 2.75407481 6.53488425 2 4 C1.35633785 2.65541038 0.69665431 1.31791312 0 0 Z " fill="#434343" transform="translate(419,245)"/>
<path d="M0 0 C1.21816406 0.12761719 2.43632813 0.25523437 3.69140625 0.38671875 C3.26988281 1.15757812 2.84835938 1.9284375 2.4140625 2.72265625 C1.86621094 3.72554687 1.31835938 4.7284375 0.75390625 5.76171875 C-0.06400391 7.25832031 -0.06400391 7.25832031 -0.8984375 8.78515625 C-1.72356965 10.30742221 -2.53423766 11.83800658 -3.30859375 13.38671875 C-11.72359375 13.88171875 -11.72359375 13.88171875 -20.30859375 14.38671875 C-21.30859375 11.38671875 -21.30859375 11.38671875 -20.5078125 8.6875 C-15.57439879 -1.06459687 -9.92981572 -0.72742511 0 0 Z " fill="#434343" transform="translate(42.30859375,244.61328125)"/>
<path d="M0 0 C2.20703125 0.01171875 2.20703125 0.01171875 5.89453125 0.51171875 C6.39561192 8.15319891 5.46366292 16.21400465 0.3828125 22.33203125 C-1.10546875 23.51171875 -1.10546875 23.51171875 -3.10546875 23.51171875 C-4.68359375 21.5 -4.68359375 21.5 -6.35546875 18.82421875 C-6.9175 17.95410156 -7.47953125 17.08398438 -8.05859375 16.1875 C-9.10546875 13.51171875 -9.10546875 13.51171875 -8.41015625 10.94921875 C-7.97960937 10.14484375 -7.5490625 9.34046875 -7.10546875 8.51171875 C-6.60660156 7.40376953 -6.60660156 7.40376953 -6.09765625 6.2734375 C-3.12824326 0.7602966 -3.12824326 0.7602966 0 0 Z " fill="#434343" transform="translate(87.10546875,395.48828125)"/>
<path d="M0 0 C4.95295247 -0.95583293 4.95295247 -0.95583293 8 0 C11.14743007 3.26126118 13.49142191 6.72010808 15 11 C13.97520748 15.7047293 11.78334817 19.10331256 9 23 C6.44127528 22.00225828 5.21686284 21.35661889 3.76953125 18.9765625 C3.45371094 18.20054687 3.13789063 17.42453125 2.8125 16.625 C2.32716797 15.46871094 2.32716797 15.46871094 1.83203125 14.2890625 C0.03140723 9.33523303 -0.08741607 5.24496439 0 0 Z " fill="#434343" transform="translate(372,396)"/>
<path d="M0 0 C1.484375 2.1640625 1.484375 2.1640625 2.75 4.625 C3.17796875 5.44226563 3.6059375 6.25953125 4.046875 7.1015625 C4.36140625 7.72804688 4.6759375 8.35453125 5 9 C2.10109685 9.18964787 -0.78538869 9.32785971 -3.6875 9.4375 C-4.91243164 9.52547852 -4.91243164 9.52547852 -6.16210938 9.61523438 C-12.12356086 9.78418239 -12.12356086 9.78418239 -14.69775391 7.48095703 C-18 2.9882716 -18 2.9882716 -18 0 C-15.75265248 -0.39058179 -13.50195579 -0.76192958 -11.25 -1.125 C-9.99703125 -1.33382813 -8.7440625 -1.54265625 -7.453125 -1.7578125 C-2.6768384 -2.09280093 -2.6768384 -2.09280093 0 0 Z " fill="#434343" transform="translate(410,322)"/>
<path d="M0 0 C5.28 0.66 10.56 1.32 16 2 C14 7 14 7 12 11 C6.06 11 0.12 11 -6 11 C-4 6 -4 6 0 0 Z " fill="#434343" transform="translate(57,320)"/>
<path d="M0 0 C1.484375 1.6796875 1.484375 1.6796875 2.75 3.875 C3.17796875 4.59429687 3.6059375 5.31359375 4.046875 6.0546875 C5 8 5 8 5 10 C2.06097651 10.13481759 -0.87189559 10.23399416 -3.8125 10.3125 C-5.06256836 10.3753418 -5.06256836 10.3753418 -6.33789062 10.43945312 C-8.65735157 10.48602865 -10.72719196 10.46990063 -13 10 C-15.13671875 7.66796875 -15.13671875 7.66796875 -16 5 C-15.67 4.01 -15.34 3.02 -15 2 C-13.2508503 1.66223316 -11.50063855 1.32996329 -9.75 1 C-8.77546875 0.814375 -7.8009375 0.62875 -6.796875 0.4375 C-4 0 -4 0 0 0 Z " fill="#434343" transform="translate(41,234)"/>
<path d="M0 0 C3.58833468 0.43868377 6.35219173 1.14829766 9.5 2.9375 C7.625 7.6875 7.625 7.6875 6.5 9.9375 C0.56 9.9375 -5.38 9.9375 -11.5 9.9375 C-7.30327604 -0.5543099 -7.30327604 -0.5543099 0 0 Z " fill="#434343" transform="translate(430.5,234.0625)"/>
<path d="M0 0 C5.94 0 11.88 0 18 0 C15.33333333 6.66666667 15.33333333 6.66666667 13 9 C10.4765625 9.4609375 10.4765625 9.4609375 7.625 9.375 C6.68914063 9.36210937 5.75328125 9.34921875 4.7890625 9.3359375 C1.89224601 8.98702123 -0.35373237 8.20284892 -3 7 C-1.125 2.25 -1.125 2.25 0 0 Z " fill="#434343" transform="translate(28,421)"/>
<path d="M0 0 C2.93902349 -0.13481759 5.87189559 -0.23399416 8.8125 -0.3125 C10.06256836 -0.3753418 10.06256836 -0.3753418 11.33789062 -0.43945312 C13.65735157 -0.48602865 15.72719196 -0.46990063 18 0 C20.13671875 2.33203125 20.13671875 2.33203125 21 5 C20.67 5.99 20.34 6.98 20 8 C15.36705376 9.75442635 9.80785637 10.02415875 5 9 C2.55561725 6.66007805 1.2033663 4.14470863 0 1 C0 0.67 0 0.34 0 0 Z " fill="#434343" transform="translate(419,421)"/>
<path d="M0 0 C0.66 0 1.32 0 2 0 C3.54296875 1.828125 3.54296875 1.828125 5.1875 4.25 C5.73792969 5.03890625 6.28835938 5.8278125 6.85546875 6.640625 C8 9 8 9 7 13 C2.71 13 -1.58 13 -6 13 C-4.7792482 7.91353417 -3.28080442 4.20353067 0 0 Z " fill="#434343" transform="translate(379,246)"/>
<path d="M0 0 C1.5625 1.25 1.5625 1.25 3 3 C2.62923695 7.41208035 0.12457497 11.34945005 -2.34765625 14.9140625 C-7.83263784 19.22772991 -15.40165732 17.6679987 -22 17 C-22 16.34 -22 15.68 -22 15 C-21.04738281 14.82984375 -20.09476562 14.6596875 -19.11328125 14.484375 C-17.85902344 14.24203125 -16.60476563 13.9996875 -15.3125 13.75 C-14.07113281 13.51796875 -12.82976562 13.2859375 -11.55078125 13.046875 C-7.76516998 11.93076519 -5.77552673 10.77552673 -3 8 C-1.80372682 5.91986104 -1.80372682 5.91986104 -1.1875 3.75 C-0.795625 2.5125 -0.40375 1.275 0 0 Z " fill="#434343" transform="translate(441,303)"/>
<path d="M0 0 C2 1 2 1 2.7109375 2.7421875 C3.15170839 4.1578399 3.58923962 5.57450527 4.0234375 6.9921875 C5.30780455 9.63284615 6.44628606 10.53649284 9 12 C12.48883619 13.00616616 12.48883619 13.00616616 16.25 13.6875 C17.51328125 13.93886719 18.7765625 14.19023437 20.078125 14.44921875 C21.04234375 14.63097656 22.0065625 14.81273437 23 15 C23 15.66 23 16.32 23 17 C7.93878351 18.52475758 7.93878351 18.52475758 3.34765625 14.9140625 C0.82910049 11.28265652 -1.475312 7.45984804 -2 3 C-1.34 2.01 -0.68 1.02 0 0 Z " fill="#434343" transform="translate(23,303)"/>
<path d="M0 0 C3 1 3 1 4.38671875 3.25 C4.81597656 4.1575 5.24523437 5.065 5.6875 6 C6.12449219 6.9075 6.56148437 7.815 7.01171875 8.75 C8 11 8 11 8 12 C3.38 12 -1.24 12 -6 12 C-4.24858504 7.6214626 -2.37016034 4.02927258 0 0 Z " fill="#434343" transform="translate(84,246)"/>
<path d="M0 0 C-1.41600689 6.13602988 -5.0663375 10.26698362 -9 15 C-9.99 14.67 -10.98 14.34 -12 14 C-10.3778345 7.511338 -7.23417991 0 0 0 Z " fill="#434343" transform="translate(459,408)"/>
<path d="M0 0 C2.2578125 -0.328125 2.2578125 -0.328125 5 0 C7.0546875 2.265625 7.0546875 2.265625 8.875 5.25 C9.49117187 6.22453125 10.10734375 7.1990625 10.7421875 8.203125 C12 11 12 11 11.6953125 13.359375 C11.46585938 13.90078125 11.23640625 14.4421875 11 15 C7.42521604 13.55767936 5.88918552 11.83879097 3.8125 8.625 C3.30332031 7.85414063 2.79414063 7.08328125 2.26953125 6.2890625 C1.08492721 4.15313029 0.45206553 2.38559884 0 0 Z " fill="#434343" transform="translate(6,408)"/>
<path d="M0 0 C7.8049778 6.22259874 7.8049778 6.22259874 10 11 C10 11.99 10 12.98 10 14 C7.7109375 13.8046875 7.7109375 13.8046875 5 13 C3.1640625 10.8203125 3.1640625 10.8203125 1.625 8.125 C1.10164063 7.24070313 0.57828125 6.35640625 0.0390625 5.4453125 C-1 3 -1 3 0 0 Z " fill="#434343" transform="translate(448,242)"/>
<path d="M0 0 C0.66 0.33 1.32 0.66 2 1 C1.35329602 4.3971438 0.05741903 6.852809 -1.8125 9.75 C-2.31394531 10.54921875 -2.81539062 11.3484375 -3.33203125 12.171875 C-3.88246094 12.77515625 -4.43289062 13.3784375 -5 14 C-6.32 14 -7.64 14 -9 14 C-7.64002446 7.95566426 -4.14348206 4.36505864 0 0 Z " fill="#434343" transform="translate(16,242)"/>
<path d="M0 0 C5.94 0 11.88 0 18 0 C18 0.66 18 1.32 18 2 C12.06 2 6.12 2 0 2 C0 1.34 0 0.68 0 0 Z " fill="#434343" transform="translate(397,257)"/>
<path d="M0 0 C5.94 0 11.88 0 18 0 C18 0.33 18 0.66 18 1 C12.06 1 6.12 1 0 1 C0 0.67 0 0.34 0 0 Z " fill="#434343" transform="translate(50,257)"/>
</svg>
